<svg width="96" height="96" viewBox="0 0 96 96" fill="none" xmlns="http://www.w3.org/2000/svg">
  <g filter="url(#filter0_f_8116_13638)">
    <rect x="28" y="20" width="40" height="40" rx="8" fill="#31313D"/>
  </g>
  <rect x="28" y="28" width="40" height="40" rx="8" fill="#494979"/>
  <path d="M76.7293 42.2071L76.7293 67.5C76.7293 67.6869 76.7293 67.7804 76.6891 67.85C76.6628 67.8956 76.6249 67.9335 76.5793 67.9598C76.5097 68 76.4162 68 76.2293 68C76.0424 68 75.9489 68 75.8793 67.9598C75.8337 67.9335 75.7958 67.8956 75.7695 67.85C75.7293 67.7804 75.7293 67.6869 75.7293 67.5L75.7293 42.207L73.9364 44C73.8042 44.1321 73.7381 44.1982 73.6605 44.219C73.6096 44.2327 73.5561 44.2327 73.5052 44.219C73.4276 44.1982 73.3615 44.1321 73.2293 44C73.0971 43.8678 73.031 43.8017 73.0102 43.7241C72.9966 43.6732 72.9966 43.6196 73.0102 43.5688C73.031 43.4911 73.0971 43.425 73.2293 43.2929L75.5222 41C75.8555 40.6666 76.0222 40.5 76.2293 40.5C76.4364 40.5 76.6031 40.6666 76.9364 41L79.2293 43.2929C79.3615 43.425 79.4276 43.4911 79.4484 43.5688C79.462 43.6196 79.462 43.6732 79.4484 43.7241C79.4276 43.8017 79.3615 43.8678 79.2293 44C79.0971 44.1321 79.031 44.1982 78.9534 44.219C78.9025 44.2327 78.849 44.2327 78.7981 44.219C78.7204 44.1982 78.6544 44.1321 78.5222 44L76.7293 42.2071Z" fill="url(#paint0_linear_8116_13638)"/>
  <defs>
    <filter id="filter0_f_8116_13638" x="23.2" y="15.2" width="49.6" height="49.6" filterUnits="userSpaceOnUse" color-interpolation-filters="sRGB">
      <feFlood flood-opacity="0" result="BackgroundImageFix"/>
      <feBlend mode="normal" in="SourceGraphic" in2="BackgroundImageFix" result="shape"/>
      <feGaussianBlur stdDeviation="2.4" result="effect1_foregroundBlur_8116_13638"/>
    </filter>
    <linearGradient id="paint0_linear_8116_13638" x1="76.2293" y1="69" x2="76.2293" y2="40.5" gradientUnits="userSpaceOnUse">
      <stop stop-color="white" stop-opacity="0"/>
      <stop offset="1" stop-color="white" stop-opacity="0.4"/>
    </linearGradient>
  </defs>
</svg>
