<svg width="96" height="96" viewBox="0 0 96 96" fill="none" xmlns="http://www.w3.org/2000/svg">
  <path d="M34 50C34 42.4575 34 38.6863 36.3431 36.3431C38.6863 34 42.4575 34 50 34H58C65.5425 34 69.3137 34 71.6569 36.3431C74 38.6863 74 42.4575 74 50V58C74 65.5425 74 69.3137 71.6569 71.6569C69.3137 74 65.5425 74 58 74H50C42.4575 74 38.6863 74 36.3431 71.6569C34 69.3137 34 65.5425 34 58V50Z" fill="#494979"/>
  <path d="M28 44C28 36.4575 28 32.6863 30.3431 30.3431C32.6863 28 36.4575 28 44 28H52C59.5425 28 63.3137 28 65.6569 30.3431C68 32.6863 68 36.4575 68 44V52C68 59.5425 68 63.3137 65.6569 65.6569C63.3137 68 59.5425 68 52 68H44C36.4575 68 32.6863 68 30.3431 65.6569C28 63.3137 28 59.5425 28 52V44Z" fill="#31313D"/>
  <path d="M25.862 30.86C25.8264 30.9459 25.8087 30.9888 25.7868 31.0216C25.6969 31.1561 25.5348 31.2232 25.3762 31.1917C25.3375 31.184 25.2946 31.1662 25.2087 31.1306L20.5893 29.2172C20.5035 29.1817 20.4605 29.1639 20.4278 29.142C20.2933 29.0521 20.2261 28.89 20.2577 28.7314C20.2654 28.6927 20.2832 28.6498 20.3187 28.5639C20.3543 28.4781 20.3721 28.4352 20.394 28.4024C20.4838 28.2679 20.6459 28.2008 20.8046 28.2323C20.8432 28.24 20.8862 28.2578 20.972 28.2933L25.5914 30.2068C25.6773 30.2423 25.7202 30.2601 25.753 30.282C25.8875 30.3719 25.9546 30.5339 25.923 30.6926C25.9154 30.7313 25.8976 30.7742 25.862 30.86Z" fill="url(#paint0_linear_8116_13594)"/>
  <path d="M31.1092 25.612C31.0233 25.6476 30.9804 25.6654 30.9418 25.673C30.7831 25.7046 30.621 25.6375 30.5311 25.503C30.5093 25.4702 30.4915 25.4273 30.4559 25.3414L28.5425 20.722C28.5069 20.6362 28.4891 20.5932 28.4815 20.5546C28.4499 20.3959 28.517 20.2338 28.6515 20.144C28.6843 20.1221 28.7272 20.1043 28.8131 20.0687C28.8989 20.0332 28.9419 20.0154 28.9805 20.0077C29.1392 19.9761 29.3013 20.0433 29.3911 20.1778C29.413 20.2105 29.4308 20.2535 29.4664 20.3393L31.3798 24.9587C31.4154 25.0446 31.4331 25.0875 31.4408 25.1262C31.4724 25.2848 31.4053 25.4469 31.2707 25.5368C31.238 25.5587 31.195 25.5765 31.1092 25.612Z" fill="url(#paint1_linear_8116_13594)"/>
  <path d="M28.1627 27.913C28.2284 27.8473 28.2612 27.8145 28.2831 27.7817C28.373 27.6472 28.373 27.4718 28.2831 27.3373C28.2612 27.3045 28.2284 27.2716 28.1627 27.2059L24.6271 23.6704C24.5614 23.6047 24.5285 23.5718 24.4958 23.5499C24.3613 23.4601 24.1859 23.4601 24.0513 23.5499C24.0186 23.5718 23.9857 23.6047 23.92 23.6704C23.8543 23.7361 23.8214 23.769 23.7996 23.8017C23.7097 23.9362 23.7097 24.1117 23.7996 24.2462C23.8214 24.2789 23.8543 24.3118 23.92 24.3775L27.4555 27.913C27.5213 27.9787 27.5541 28.0116 27.5869 28.0335C27.7214 28.1234 27.8968 28.1234 28.0313 28.0335C28.0641 28.0116 28.0969 27.9788 28.1627 27.913Z" fill="url(#paint2_linear_8116_13594)"/>
  <defs>
    <linearGradient id="paint0_linear_8116_13594" x1="30" y1="30" x2="23.5" y2="24" gradientUnits="userSpaceOnUse">
      <stop stop-color="white" stop-opacity="0"/>
      <stop offset="1" stop-color="white" stop-opacity="0.4"/>
    </linearGradient>
    <linearGradient id="paint1_linear_8116_13594" x1="30" y1="30" x2="23.5" y2="24" gradientUnits="userSpaceOnUse">
      <stop stop-color="white" stop-opacity="0"/>
      <stop offset="1" stop-color="white" stop-opacity="0.4"/>
    </linearGradient>
    <linearGradient id="paint2_linear_8116_13594" x1="30" y1="30" x2="23.5" y2="24" gradientUnits="userSpaceOnUse">
      <stop stop-color="white" stop-opacity="0"/>
      <stop offset="1" stop-color="white" stop-opacity="0.4"/>
    </linearGradient>
  </defs>
</svg>
