<svg width="96" height="96" viewBox="0 0 96 96" fill="none" xmlns="http://www.w3.org/2000/svg">
  <path d="M34 50C34 42.4575 34 38.6863 36.3431 36.3431C38.6863 34 42.4575 34 50 34H58C65.5425 34 69.3137 34 71.6569 36.3431C74 38.6863 74 42.4575 74 50V58C74 65.5425 74 69.3137 71.6569 71.6569C69.3137 74 65.5425 74 58 74H50C42.4575 74 38.6863 74 36.3431 71.6569C34 69.3137 34 65.5425 34 58V50Z" fill="#31313D"/>
  <path d="M28 44C28 36.4575 28 32.6863 30.3431 30.3431C32.6863 28 36.4575 28 44 28H52C59.5425 28 63.3137 28 65.6569 30.3431C68 32.6863 68 36.4575 68 44V52C68 59.5425 68 63.3137 65.6569 65.6569C63.3137 68 59.5425 68 52 68H44C36.4575 68 32.6863 68 30.3431 65.6569C28 63.3137 28 59.5425 28 52V44Z" fill="#494979"/>
  <path d="M65.14 70.138C65.0541 70.1736 65.0112 70.1913 64.9784 70.2132C64.8439 70.3031 64.7768 70.4652 64.8083 70.6238C64.816 70.6625 64.8338 70.7054 64.8694 70.7913L66.7828 75.4107C66.8183 75.4965 66.8361 75.5395 66.858 75.5722C66.9479 75.7067 67.11 75.7739 67.2686 75.7423C67.3073 75.7346 67.3502 75.7168 67.4361 75.6813C67.5219 75.6457 67.5648 75.6279 67.5976 75.606C67.7321 75.5161 67.7992 75.3541 67.7677 75.1954C67.76 75.1568 67.7422 75.1138 67.7067 75.028L65.7932 70.4086C65.7577 70.3227 65.7399 70.2798 65.718 70.247C65.6281 70.1125 65.4661 70.0454 65.3074 70.077C65.2687 70.0846 65.2258 70.1024 65.14 70.138Z" fill="url(#paint0_linear_8108_6194)"/>
  <path d="M70.388 64.8908C70.3524 64.9767 70.3346 65.0196 70.327 65.0582C70.2954 65.2169 70.3625 65.379 70.497 65.4689C70.5298 65.4907 70.5727 65.5085 70.6586 65.5441L75.278 67.4575C75.3638 67.4931 75.4068 67.5109 75.4454 67.5185C75.6041 67.5501 75.7662 67.483 75.856 67.3485C75.8779 67.3157 75.8957 67.2728 75.9313 67.1869C75.9668 67.1011 75.9846 67.0581 75.9923 67.0195C76.0239 66.8608 75.9567 66.6987 75.8222 66.6089C75.7895 66.587 75.7465 66.5692 75.6607 66.5336L71.0413 64.6202C70.9554 64.5846 70.9125 64.5669 70.8738 64.5592C70.7152 64.5276 70.5531 64.5947 70.4632 64.7293C70.4413 64.762 70.4235 64.805 70.388 64.8908Z" fill="url(#paint1_linear_8108_6194)"/>
  <path d="M68.087 67.8373C68.1527 67.7716 68.1855 67.7388 68.2183 67.7169C68.3528 67.627 68.5282 67.627 68.6627 67.7169C68.6955 67.7388 68.7284 67.7716 68.7941 67.8373L72.3296 71.3729C72.3953 71.4386 72.4282 71.4714 72.4501 71.5042C72.5399 71.6387 72.5399 71.8141 72.4501 71.9487C72.4282 71.9814 72.3953 72.0143 72.3296 72.08C72.2639 72.1457 72.231 72.1786 72.1983 72.2004C72.0638 72.2903 71.8883 72.2903 71.7538 72.2004C71.7211 72.1786 71.6882 72.1457 71.6225 72.08L68.087 68.5445C68.0213 68.4787 67.9884 68.4459 67.9665 68.4131C67.8766 68.2786 67.8766 68.1032 67.9665 67.9687C67.9884 67.9359 68.0212 67.9031 68.087 67.8373Z" fill="url(#paint2_linear_8108_6194)"/>
  <path d="M25.862 30.86C25.8264 30.9459 25.8087 30.9888 25.7868 31.0216C25.6969 31.1561 25.5348 31.2232 25.3762 31.1917C25.3375 31.184 25.2946 31.1662 25.2087 31.1306L20.5893 29.2172C20.5035 29.1817 20.4605 29.1639 20.4278 29.142C20.2933 29.0521 20.2261 28.89 20.2577 28.7314C20.2654 28.6927 20.2832 28.6498 20.3187 28.5639C20.3543 28.4781 20.3721 28.4352 20.394 28.4024C20.4838 28.2679 20.6459 28.2008 20.8046 28.2323C20.8432 28.24 20.8862 28.2578 20.972 28.2933L25.5914 30.2068C25.6773 30.2423 25.7202 30.2601 25.753 30.282C25.8875 30.3719 25.9546 30.5339 25.923 30.6926C25.9154 30.7313 25.8976 30.7742 25.862 30.86Z" fill="url(#paint3_linear_8108_6194)"/>
  <path d="M31.1092 25.612C31.0233 25.6476 30.9804 25.6654 30.9418 25.673C30.7831 25.7046 30.621 25.6375 30.5311 25.503C30.5093 25.4702 30.4915 25.4273 30.4559 25.3414L28.5425 20.722C28.5069 20.6362 28.4891 20.5932 28.4815 20.5546C28.4499 20.3959 28.517 20.2338 28.6515 20.144C28.6843 20.1221 28.7272 20.1043 28.8131 20.0687C28.8989 20.0332 28.9419 20.0154 28.9805 20.0077C29.1392 19.9761 29.3013 20.0433 29.3911 20.1778C29.413 20.2105 29.4308 20.2535 29.4664 20.3393L31.3798 24.9587C31.4154 25.0446 31.4331 25.0875 31.4408 25.1262C31.4724 25.2848 31.4053 25.4469 31.2707 25.5368C31.238 25.5587 31.195 25.5765 31.1092 25.612Z" fill="url(#paint4_linear_8108_6194)"/>
  <path d="M28.1627 27.913C28.2284 27.8473 28.2612 27.8145 28.2831 27.7817C28.373 27.6472 28.373 27.4718 28.2831 27.3373C28.2612 27.3045 28.2284 27.2716 28.1627 27.2059L24.6271 23.6704C24.5614 23.6047 24.5285 23.5718 24.4958 23.5499C24.3613 23.4601 24.1859 23.4601 24.0513 23.5499C24.0186 23.5718 23.9857 23.6047 23.92 23.6704C23.8543 23.7361 23.8214 23.769 23.7996 23.8017C23.7097 23.9362 23.7097 24.1117 23.7996 24.2462C23.8214 24.2789 23.8543 24.3118 23.92 24.3775L27.4555 27.913C27.5213 27.9787 27.5541 28.0116 27.5869 28.0335C27.7214 28.1234 27.8968 28.1234 28.0313 28.0335C28.0641 28.0116 28.0969 27.9788 28.1627 27.913Z" fill="url(#paint5_linear_8108_6194)"/>
  <defs>
    <linearGradient id="paint0_linear_8108_6194" x1="66" y1="66" x2="72" y2="72.5" gradientUnits="userSpaceOnUse">
      <stop stop-color="white" stop-opacity="0"/>
      <stop offset="1" stop-color="white" stop-opacity="0.4"/>
    </linearGradient>
    <linearGradient id="paint1_linear_8108_6194" x1="66" y1="66" x2="72" y2="72.5" gradientUnits="userSpaceOnUse">
      <stop stop-color="white" stop-opacity="0"/>
      <stop offset="1" stop-color="white" stop-opacity="0.4"/>
    </linearGradient>
    <linearGradient id="paint2_linear_8108_6194" x1="66" y1="66" x2="72" y2="72.5" gradientUnits="userSpaceOnUse">
      <stop stop-color="white" stop-opacity="0"/>
      <stop offset="1" stop-color="white" stop-opacity="0.4"/>
    </linearGradient>
    <linearGradient id="paint3_linear_8108_6194" x1="30" y1="30" x2="23.5" y2="24" gradientUnits="userSpaceOnUse">
      <stop stop-color="white" stop-opacity="0"/>
      <stop offset="1" stop-color="white" stop-opacity="0.4"/>
    </linearGradient>
    <linearGradient id="paint4_linear_8108_6194" x1="30" y1="30" x2="23.5" y2="24" gradientUnits="userSpaceOnUse">
      <stop stop-color="white" stop-opacity="0"/>
      <stop offset="1" stop-color="white" stop-opacity="0.4"/>
    </linearGradient>
    <linearGradient id="paint5_linear_8108_6194" x1="30" y1="30" x2="23.5" y2="24" gradientUnits="userSpaceOnUse">
      <stop stop-color="white" stop-opacity="0"/>
      <stop offset="1" stop-color="white" stop-opacity="0.4"/>
    </linearGradient>
  </defs>
</svg>
