<svg width="96" height="96" viewBox="0 0 96 96" fill="none" xmlns="http://www.w3.org/2000/svg">
  <path d="M16 32.8C16 24.8804 16 20.9206 18.4603 18.4603C20.9206 16 24.8804 16 32.8 16H63.2C71.1196 16 75.0794 16 77.5397 18.4603C80 20.9206 80 24.8804 80 32.8V63.2C80 71.1196 80 75.0794 77.5397 77.5397C75.0794 80 71.1196 80 63.2 80H32.8C24.8804 80 20.9206 80 18.4603 77.5397C16 75.0794 16 71.1196 16 63.2V32.8Z" fill="#232328"/>
  <path d="M32 39.7333C32 36.0878 32 34.265 33.1325 33.1325C34.265 32 36.0878 32 39.7333 32H56.2667C59.9122 32 61.735 32 62.8675 33.1325C64 34.265 64 36.0878 64 39.7333V56.2667C64 59.9122 64 61.735 62.8675 62.8675C61.735 64 59.9122 64 56.2667 64H39.7333C36.0878 64 34.265 64 33.1325 62.8675C32 61.735 32 59.9122 32 56.2667V39.7333Z" fill="#494979"/>
  <path d="M68.2668 27.1558L72.0094 23.4132C72.1416 23.281 72.2077 23.2149 72.2853 23.1941C72.3362 23.1805 72.3898 23.1805 72.4406 23.1941C72.5183 23.2149 72.5844 23.281 72.7165 23.4132C72.8487 23.5454 72.9148 23.6114 72.9356 23.6891C72.9492 23.74 72.9492 23.7935 72.9356 23.8444C72.9148 23.922 72.8487 23.9881 72.7165 24.1203L68.9738 27.863L71.5094 27.863C71.6963 27.863 71.7898 27.863 71.8594 27.9032C71.905 27.9295 71.9429 27.9674 71.9692 28.013C72.0094 28.0826 72.0094 28.1761 72.0094 28.363C72.0094 28.5499 72.0094 28.6434 71.9692 28.713C71.9429 28.7586 71.905 28.7965 71.8594 28.8228C71.7898 28.863 71.6963 28.863 71.5094 28.863L68.2668 28.863C67.7954 28.863 67.5597 28.863 67.4132 28.7165C67.2668 28.5701 67.2668 28.3344 67.2668 27.863L67.2668 24.6203C67.2668 24.4334 67.2668 24.34 67.307 24.2703C67.3333 24.2247 67.3712 24.1869 67.4168 24.1605C67.4864 24.1203 67.5799 24.1203 67.7668 24.1203C67.9537 24.1203 68.0472 24.1203 68.1168 24.1605C68.1624 24.1869 68.2003 24.2247 68.2266 24.2703C68.2668 24.34 68.2668 24.4334 68.2668 24.6203L68.2668 27.1558Z" fill="url(#paint0_linear_8108_6188)"/>
  <path d="M27.7332 68.8442L23.9906 72.5868C23.8584 72.719 23.7923 72.7851 23.7147 72.8059C23.6638 72.8195 23.6102 72.8195 23.5594 72.8059C23.4817 72.7851 23.4156 72.719 23.2835 72.5868C23.1513 72.4546 23.0852 72.3886 23.0644 72.3109C23.0508 72.26 23.0508 72.2065 23.0644 72.1556C23.0852 72.078 23.1513 72.0119 23.2835 71.8797L27.0262 68.137L24.4906 68.137C24.3037 68.137 24.2102 68.137 24.1406 68.0968C24.095 68.0705 24.0571 68.0326 24.0308 67.987C23.9906 67.9174 23.9906 67.8239 23.9906 67.637C23.9906 67.4501 23.9906 67.3566 24.0308 67.287C24.0571 67.2414 24.095 67.2035 24.1406 67.1772C24.2102 67.137 24.3037 67.137 24.4906 67.137L27.7332 67.137C28.2046 67.137 28.4403 67.137 28.5868 67.2835C28.7332 67.4299 28.7332 67.6656 28.7332 68.137L28.7332 71.3797C28.7332 71.5666 28.7332 71.66 28.693 71.7297C28.6667 71.7753 28.6288 71.8131 28.5832 71.8395C28.5136 71.8797 28.4201 71.8797 28.2332 71.8797C28.0463 71.8797 27.9528 71.8797 27.8832 71.8395C27.8376 71.8131 27.7997 71.7753 27.7734 71.7297C27.7332 71.66 27.7332 71.5666 27.7332 71.3797L27.7332 68.8442Z" fill="url(#paint1_linear_8108_6188)"/>
  <defs>
    <linearGradient id="paint0_linear_8108_6188" x1="72.9094" y1="23.2204" x2="67.4132" y2="28.7165" gradientUnits="userSpaceOnUse">
      <stop stop-color="white" stop-opacity="0"/>
      <stop offset="1" stop-color="white" stop-opacity="0.4"/>
    </linearGradient>
    <linearGradient id="paint1_linear_8108_6188" x1="23.0906" y1="72.7796" x2="28.5868" y2="67.2835" gradientUnits="userSpaceOnUse">
      <stop stop-color="white" stop-opacity="0"/>
      <stop offset="1" stop-color="white" stop-opacity="0.4"/>
    </linearGradient>
  </defs>
</svg>
