<svg width="96" height="96" viewBox="0 0 96 96" fill="none" xmlns="http://www.w3.org/2000/svg">
  <path d="M16 32.8C16 24.8804 16 20.9206 18.4603 18.4603C20.9206 16 24.8804 16 32.8 16H63.2C71.1196 16 75.0794 16 77.5397 18.4603C80 20.9206 80 24.8804 80 32.8V63.2C80 71.1196 80 75.0794 77.5397 77.5397C75.0794 80 71.1196 80 63.2 80H32.8C24.8804 80 20.9206 80 18.4603 77.5397C16 75.0794 16 71.1196 16 63.2V32.8Z" fill="#232328"/>
  <path d="M32 39.7333C32 36.0878 32 34.265 33.1325 33.1325C34.265 32 36.0878 32 39.7333 32H56.2667C59.9122 32 61.735 32 62.8675 33.1325C64 34.265 64 36.0878 64 39.7333V56.2667C64 59.9122 64 61.735 62.8675 62.8675C61.735 64 59.9122 64 56.2667 64H39.7333C36.0878 64 34.265 64 33.1325 62.8675C32 61.735 32 59.9122 32 56.2667V39.7333Z" fill="#494979"/>
  <path d="M71.7332 24.8442L67.9906 28.5868C67.8584 28.719 67.7923 28.7851 67.7147 28.8059C67.6638 28.8195 67.6102 28.8195 67.5594 28.8059C67.4817 28.7851 67.4156 28.719 67.2835 28.5868C67.1513 28.4546 67.0852 28.3886 67.0644 28.3109C67.0508 28.26 67.0508 28.2065 67.0644 28.1556C67.0852 28.078 67.1513 28.0119 67.2835 27.8797L71.0262 24.137L68.4906 24.137C68.3037 24.137 68.2102 24.137 68.1406 24.0968C68.095 24.0705 68.0571 24.0326 68.0308 23.987C67.9906 23.9174 67.9906 23.8239 67.9906 23.637C67.9906 23.4501 67.9906 23.3566 68.0308 23.287C68.0571 23.2414 68.095 23.2035 68.1406 23.1772C68.2102 23.137 68.3037 23.137 68.4906 23.137L71.7332 23.137C72.2046 23.137 72.4403 23.137 72.5868 23.2835C72.7332 23.4299 72.7332 23.6656 72.7332 24.137L72.7332 27.3797C72.7332 27.5666 72.7332 27.66 72.693 27.7297C72.6667 27.7753 72.6288 27.8131 72.5832 27.8395C72.5136 27.8797 72.4201 27.8797 72.2332 27.8797C72.0463 27.8797 71.9528 27.8797 71.8832 27.8395C71.8376 27.8131 71.7997 27.7753 71.7734 27.7297C71.7332 27.66 71.7332 27.5666 71.7332 27.3797L71.7332 24.8442Z" fill="url(#paint0_linear_8116_13579)"/>
  <path d="M24.2668 71.1558L28.0094 67.4132C28.1416 67.281 28.2077 67.2149 28.2853 67.1941C28.3362 67.1805 28.3898 67.1805 28.4406 67.1941C28.5183 67.2149 28.5844 67.281 28.7165 67.4132C28.8487 67.5454 28.9148 67.6114 28.9356 67.6891C28.9492 67.74 28.9492 67.7935 28.9356 67.8444C28.9148 67.922 28.8487 67.9881 28.7165 68.1203L24.9738 71.863L27.5094 71.863C27.6963 71.863 27.7898 71.863 27.8594 71.9032C27.905 71.9295 27.9429 71.9674 27.9692 72.013C28.0094 72.0826 28.0094 72.1761 28.0094 72.363C28.0094 72.5499 28.0094 72.6434 27.9692 72.713C27.9429 72.7586 27.905 72.7965 27.8594 72.8228C27.7898 72.863 27.6963 72.863 27.5094 72.863L24.2668 72.863C23.7954 72.863 23.5597 72.863 23.4132 72.7165C23.2668 72.5701 23.2668 72.3344 23.2668 71.863L23.2668 68.6203C23.2668 68.4334 23.2668 68.34 23.307 68.2703C23.3333 68.2247 23.3712 68.1869 23.4168 68.1605C23.4864 68.1203 23.5799 68.1203 23.7668 68.1203C23.9537 68.1203 24.0472 68.1203 24.1168 68.1605C24.1624 68.1869 24.2003 68.2247 24.2266 68.2703C24.2668 68.34 24.2668 68.4334 24.2668 68.6203L24.2668 71.1558Z" fill="url(#paint1_linear_8116_13579)"/>
  <defs>
    <linearGradient id="paint0_linear_8116_13579" x1="67.0906" y1="28.7796" x2="72.5868" y2="23.2835" gradientUnits="userSpaceOnUse">
      <stop stop-color="white" stop-opacity="0"/>
      <stop offset="1" stop-color="white" stop-opacity="0.4"/>
    </linearGradient>
    <linearGradient id="paint1_linear_8116_13579" x1="28.9094" y1="67.2204" x2="23.4132" y2="72.7165" gradientUnits="userSpaceOnUse">
      <stop stop-color="white" stop-opacity="0"/>
      <stop offset="1" stop-color="white" stop-opacity="0.4"/>
    </linearGradient>
  </defs>
</svg>
