<svg width="96" height="96" viewBox="0 0 96 96" fill="none" xmlns="http://www.w3.org/2000/svg">
  <path d="M83.3193 54.536C87.0906 48.004 88.9762 44.738 88.1185 41.5372C87.2609 38.3364 83.9949 36.4508 77.4629 32.6796L70.5347 28.6796C64.0028 24.9083 60.7368 23.0227 57.536 23.8804C54.3352 24.738 52.4496 28.004 48.6783 34.536L44.6783 41.4642C40.9071 47.9961 39.0215 51.2621 39.8791 54.4629C40.7368 57.6637 44.0028 59.5493 50.5347 63.3206L57.4629 67.3206C63.9949 71.0918 67.2609 72.9774 70.4617 72.1198C73.6625 71.2621 75.5481 67.9961 79.3193 61.4642L83.3193 54.536Z" fill="#232328"/>
  <path d="M76.354 49.3127C78.3061 42.0273 79.2822 38.3845 77.6254 35.5148C75.9685 32.645 72.3258 31.6689 65.0403 29.7168L57.3129 27.6463C50.0274 25.6941 46.3847 24.718 43.5149 26.3749C40.6452 28.0318 39.6691 31.6745 37.717 38.96L35.6464 46.6874C33.6943 53.9728 32.7182 57.6156 34.3751 60.4853C36.0319 63.3551 39.6747 64.3311 46.9601 66.2833L54.6875 68.3538C61.973 70.306 65.6157 71.282 68.4855 69.6252C71.3553 67.9683 72.3313 64.3256 74.2835 57.0401L76.354 49.3127Z" fill="#31313D"/>
  <path d="M68 44.0002C68 36.4578 68 32.6865 65.6569 30.3434C63.3137 28.0002 59.5425 28.0002 52 28.0002H44C36.4575 28.0002 32.6863 28.0002 30.3431 30.3434C28 32.6865 28 36.4578 28 44.0002V52.0002C28 59.5427 28 63.314 30.3431 65.6571C32.6863 68.0002 36.4575 68.0002 44 68.0002H52C59.5425 68.0002 63.3137 68.0002 65.6569 65.6571C68 63.314 68 59.5427 68 52.0002V44.0002Z" fill="#494979"/>
  <path d="M42.2071 76.7293L67.5 76.7293C67.6869 76.7293 67.7804 76.7293 67.85 76.6891C67.8956 76.6628 67.9335 76.6249 67.9598 76.5793C68 76.5097 68 76.4162 68 76.2293C68 76.0424 68 75.9489 67.9598 75.8793C67.9335 75.8337 67.8956 75.7958 67.85 75.7695C67.7804 75.7293 67.6869 75.7293 67.5 75.7293L42.207 75.7293L44 73.9364C44.1321 73.8042 44.1982 73.7381 44.219 73.6605C44.2327 73.6096 44.2327 73.5561 44.219 73.5052C44.1982 73.4275 44.1321 73.3615 44 73.2293C43.8678 73.0971 43.8017 73.031 43.7241 73.0102C43.6732 72.9966 43.6196 72.9966 43.5688 73.0102C43.4911 73.031 43.425 73.0971 43.2929 73.2293L41 75.5222C40.6666 75.8555 40.5 76.0222 40.5 76.2293C40.5 76.4364 40.6666 76.6031 41 76.9364L43.2929 79.2293C43.425 79.3615 43.4911 79.4275 43.5688 79.4484C43.6196 79.462 43.6732 79.462 43.7241 79.4484C43.8017 79.4275 43.8678 79.3615 44 79.2293C44.1321 79.0971 44.1982 79.031 44.219 78.9534C44.2327 78.9025 44.2327 78.849 44.219 78.7981C44.1982 78.7204 44.1321 78.6544 44 78.5222L42.2071 76.7293Z" fill="url(#paint0_linear_8108_6252)"/>
  <defs>
    <linearGradient id="paint0_linear_8108_6252" x1="69" y1="76.2293" x2="40.5" y2="76.2293" gradientUnits="userSpaceOnUse">
      <stop stop-color="white" stop-opacity="0"/>
      <stop offset="1" stop-color="white" stop-opacity="0.4"/>
    </linearGradient>
  </defs>
</svg>
