<svg width="96" height="96" viewBox="0 0 96 96" fill="none" xmlns="http://www.w3.org/2000/svg">
  <path d="M75.2707 53.7929L75.2707 28.5C75.2707 28.3131 75.2707 28.2196 75.3109 28.15C75.3372 28.1044 75.3751 28.0665 75.4207 28.0402C75.4903 28 75.5838 28 75.7707 28C75.9576 28 76.0511 28 76.1207 28.0402C76.1663 28.0665 76.2042 28.1044 76.2305 28.15C76.2707 28.2196 76.2707 28.3131 76.2707 28.5L76.2707 53.793L78.0636 52C78.1958 51.8679 78.2619 51.8018 78.3395 51.781C78.3904 51.7673 78.4439 51.7673 78.4948 51.781C78.5724 51.8018 78.6385 51.8679 78.7707 52C78.9029 52.1322 78.969 52.1983 78.9898 52.2759C79.0034 52.3268 79.0034 52.3804 78.9898 52.4312C78.969 52.5089 78.9029 52.575 78.7707 52.7071L76.4778 55C76.1445 55.3334 75.9778 55.5 75.7707 55.5C75.5636 55.5 75.3969 55.3334 75.0636 55L72.7707 52.7071C72.6385 52.575 72.5724 52.5089 72.5516 52.4312C72.538 52.3804 72.538 52.3268 72.5516 52.2759C72.5724 52.1983 72.6385 52.1322 72.7707 52C72.9029 51.8679 72.969 51.8018 73.0466 51.781C73.0975 51.7673 73.151 51.7673 73.2019 51.781C73.2796 51.8018 73.3456 51.8679 73.4778 52L75.2707 53.7929Z" fill="url(#paint0_linear_8116_13349)"/>
  <path d="M28 44C28 36.4575 28 32.6863 30.3431 30.3431C32.6863 28 36.4575 28 44 28H52C59.5425 28 63.3137 28 65.6569 30.3431C68 32.6863 68 36.4575 68 44V52C68 59.5425 68 63.3137 65.6569 65.6569C63.3137 68 59.5425 68 52 68H44C36.4575 68 32.6863 68 30.3431 65.6569C28 63.3137 28 59.5425 28 52V44Z" fill="#232328"/>
  <path d="M28 52C28 44.4575 28 40.6863 30.3431 38.3431C32.6863 36 36.4575 36 44 36H52C59.5425 36 63.3137 36 65.6569 38.3431C68 40.6863 68 44.4575 68 52V60C68 67.5425 68 71.3137 65.6569 73.6569C63.3137 76 59.5425 76 52 76H44C36.4575 76 32.6863 76 30.3431 73.6569C28 71.3137 28 67.5425 28 60V52Z" fill="#494979"/>
  <defs>
    <linearGradient id="paint0_linear_8116_13349" x1="75.7707" y1="27" x2="75.7707" y2="55.5" gradientUnits="userSpaceOnUse">
      <stop stop-color="white" stop-opacity="0"/>
      <stop offset="1" stop-color="white" stop-opacity="0.4"/>
    </linearGradient>
  </defs>
</svg>
