<svg width="96" height="96" viewBox="0 0 96 96" fill="none" xmlns="http://www.w3.org/2000/svg">
  <path d="M42.2071 75.4999L67.5 75.4999C67.6869 75.4999 67.7804 75.4999 67.85 75.5401C67.8956 75.5665 67.9335 75.6043 67.9598 75.6499C68 75.7196 68 75.813 68 75.9999C68 76.1869 68 76.2803 67.9598 76.3499C67.9335 76.3955 67.8956 76.4334 67.85 76.4597C67.7804 76.4999 67.6869 76.4999 67.5 76.4999L42.207 76.4999L44 78.2928C44.1321 78.425 44.1982 78.4911 44.219 78.5688C44.2327 78.6196 44.2327 78.6732 44.219 78.724C44.1982 78.8017 44.1321 78.8678 44 79C43.8678 79.1321 43.8017 79.1982 43.7241 79.219C43.6732 79.2327 43.6196 79.2327 43.5688 79.219C43.4911 79.1982 43.425 79.1321 43.2929 79L41 76.7071C40.6666 76.3737 40.5 76.2071 40.5 76C40.5 75.7928 40.6666 75.6262 41 75.2929L43.2929 73C43.425 72.8678 43.4911 72.8017 43.5688 72.7809C43.6196 72.7673 43.6732 72.7673 43.7241 72.7809C43.8017 72.8017 43.8678 72.8678 44 73C44.1321 73.1321 44.1982 73.1982 44.219 73.2759C44.2327 73.3267 44.2327 73.3803 44.219 73.4312C44.1982 73.5088 44.1321 73.5749 44 73.7071L42.2071 75.4999Z" fill="url(#paint0_linear_8108_7454)"/>
  <path d="M36 44C36 36.4575 36 32.6863 38.3431 30.3431C40.6863 28 44.4575 28 52 28H60C67.5425 28 71.3137 28 73.6569 30.3431C76 32.6863 76 36.4575 76 44V52C76 59.5425 76 63.3137 73.6569 65.6569C71.3137 68 67.5425 68 60 68H52C44.4575 68 40.6863 68 38.3431 65.6569C36 63.3137 36 59.5425 36 52V44Z" fill="#232328"/>
  <path d="M28 44C28 36.4575 28 32.6863 30.3431 30.3431C32.6863 28 36.4575 28 44 28H52C59.5425 28 63.3137 28 65.6569 30.3431C68 32.6863 68 36.4575 68 44V52C68 59.5425 68 63.3137 65.6569 65.6569C63.3137 68 59.5425 68 52 68H44C36.4575 68 32.6863 68 30.3431 65.6569C28 63.3137 28 59.5425 28 52V44Z" fill="#494979"/>
  <defs>
    <linearGradient id="paint0_linear_8108_7454" x1="69" y1="76" x2="40.5" y2="76" gradientUnits="userSpaceOnUse">
      <stop stop-color="white" stop-opacity="0"/>
      <stop offset="0.645" stop-color="white" stop-opacity="0.6"/>
    </linearGradient>
  </defs>
</svg>
