<svg width="96" height="96" viewBox="0 0 96 96" fill="none" xmlns="http://www.w3.org/2000/svg">
  <path d="M76.7293 42.2071L76.7293 67.5C76.7293 67.6869 76.7293 67.7804 76.6891 67.85C76.6628 67.8956 76.6249 67.9335 76.5793 67.9598C76.5097 68 76.4162 68 76.2293 68C76.0424 68 75.9489 68 75.8793 67.9598C75.8337 67.9335 75.7958 67.8956 75.7695 67.85C75.7293 67.7804 75.7293 67.6869 75.7293 67.5L75.7293 42.207L73.9364 44C73.8042 44.1321 73.7381 44.1982 73.6605 44.219C73.6096 44.2327 73.5561 44.2327 73.5052 44.219C73.4276 44.1982 73.3615 44.1321 73.2293 44C73.0971 43.8678 73.031 43.8017 73.0102 43.7241C72.9966 43.6732 72.9966 43.6196 73.0102 43.5688C73.031 43.4911 73.0971 43.425 73.2293 43.2929L75.5222 41C75.8555 40.6666 76.0222 40.5 76.2293 40.5C76.4364 40.5 76.6031 40.6666 76.9364 41L79.2293 43.2929C79.3615 43.425 79.4276 43.4911 79.4484 43.5688C79.462 43.6196 79.462 43.6732 79.4484 43.7241C79.4276 43.8017 79.3615 43.8678 79.2293 44C79.0971 44.1321 79.031 44.1982 78.9534 44.219C78.9025 44.2327 78.849 44.2327 78.7981 44.219C78.7204 44.1982 78.6544 44.1321 78.5222 44L76.7293 42.2071Z" fill="url(#paint0_linear_8107_10436)"/>
  <path d="M28 52C28 44.4575 28 40.6863 30.3431 38.3431C32.6863 36 36.4575 36 44 36H52C59.5425 36 63.3137 36 65.6569 38.3431C68 40.6863 68 44.4575 68 52V60C68 67.5425 68 71.3137 65.6569 73.6569C63.3137 76 59.5425 76 52 76H44C36.4575 76 32.6863 76 30.3431 73.6569C28 71.3137 28 67.5425 28 60V52Z" fill="#232328"/>
  <path d="M28 44C28 36.4575 28 32.6863 30.3431 30.3431C32.6863 28 36.4575 28 44 28H52C59.5425 28 63.3137 28 65.6569 30.3431C68 32.6863 68 36.4575 68 44V52C68 59.5425 68 63.3137 65.6569 65.6569C63.3137 68 59.5425 68 52 68H44C36.4575 68 32.6863 68 30.3431 65.6569C28 63.3137 28 59.5425 28 52V44Z" fill="#494979"/>
  <defs>
    <linearGradient id="paint0_linear_8107_10436" x1="76.2293" y1="69" x2="76.2293" y2="40.5" gradientUnits="userSpaceOnUse">
      <stop stop-color="white" stop-opacity="0"/>
      <stop offset="1" stop-color="white" stop-opacity="0.4"/>
    </linearGradient>
  </defs>
</svg>
