<svg width="96" height="96" viewBox="0 0 96 96" fill="none" xmlns="http://www.w3.org/2000/svg">
  <path d="M53.7929 76.5001H28.5C28.3131 76.5001 28.2196 76.5001 28.15 76.4599C28.1044 76.4335 28.0665 76.3957 28.0402 76.3501C28 76.2804 28 76.187 28 76.0001C28 75.8131 28 75.7197 28.0402 75.6501C28.0665 75.6045 28.1044 75.5666 28.15 75.5403C28.2196 75.5001 28.3131 75.5001 28.5 75.5001H53.793L52 73.7071C51.8679 73.575 51.8018 73.5089 51.781 73.4312C51.7673 73.3804 51.7673 73.3268 51.781 73.2759C51.8018 73.1983 51.8679 73.1322 52 73C52.1322 72.8679 52.1983 72.8018 52.2759 72.781C52.3268 72.7673 52.3804 72.7673 52.4312 72.781C52.5089 72.8018 52.575 72.8679 52.7071 73L55 75.2929C55.3334 75.6263 55.5 75.7929 55.5 76C55.5 76.2071 55.3334 76.3738 55 76.7071L52.7071 79C52.575 79.1322 52.5089 79.1983 52.4312 79.2191C52.3804 79.2327 52.3268 79.2327 52.2759 79.2191C52.1983 79.1983 52.1322 79.1322 52 79C51.8679 78.8679 51.8018 78.8018 51.781 78.7241C51.7673 78.6733 51.7673 78.6197 51.781 78.5688C51.8018 78.4912 51.8679 78.4251 52 78.2929L53.7929 76.5001Z" fill="url(#paint0_linear_8108_6745)"/>
  <path d="M20 44C20 36.4575 20 32.6863 22.3431 30.3431C24.6863 28 28.4575 28 36 28H44C51.5425 28 55.3137 28 57.6569 30.3431C60 32.6863 60 36.4575 60 44V52C60 59.5425 60 63.3137 57.6569 65.6569C55.3137 68 51.5425 68 44 68H36C28.4575 68 24.6863 68 22.3431 65.6569C20 63.3137 20 59.5425 20 52V44Z" fill="#232328"/>
  <path d="M28 44C28 36.4575 28 32.6863 30.3431 30.3431C32.6863 28 36.4575 28 44 28H52C59.5425 28 63.3137 28 65.6569 30.3431C68 32.6863 68 36.4575 68 44V52C68 59.5425 68 63.3137 65.6569 65.6569C63.3137 68 59.5425 68 52 68H44C36.4575 68 32.6863 68 30.3431 65.6569C28 63.3137 28 59.5425 28 52V44Z" fill="#494979"/>
  <defs>
    <linearGradient id="paint0_linear_8108_6745" x1="27" y1="76" x2="55.5" y2="76" gradientUnits="userSpaceOnUse">
      <stop stop-color="white" stop-opacity="0"/>
      <stop offset="0.645" stop-color="white" stop-opacity="0.6"/>
    </linearGradient>
  </defs>
</svg>
