<svg width="96" height="96" viewBox="0 0 96 96" fill="none" xmlns="http://www.w3.org/2000/svg">
  <path d="M12.6797 54.5358C8.90845 48.0039 7.02283 44.7379 7.88048 41.5371C8.73814 38.3363 12.0041 36.4507 18.5361 32.6794L25.4643 28.6794C31.9963 24.9082 35.2623 23.0226 38.4631 23.8802C41.6638 24.7379 43.5495 28.0039 47.3207 34.5358L51.3207 41.4641C55.0919 47.996 56.9776 51.262 56.1199 54.4628C55.2623 57.6636 51.9963 59.5492 45.4643 63.3205L38.5361 67.3205C32.0041 71.0917 28.7381 72.9773 25.5373 72.1197C22.3365 71.262 20.4509 67.996 16.6797 61.4641L12.6797 54.5358Z" fill="#232328"/>
  <path d="M19.647 49.3127C17.6948 42.0273 16.7188 38.3845 18.3756 35.5148C20.0325 32.645 23.6752 31.6689 30.9607 29.7168L38.6881 27.6463C45.9735 25.6941 49.6163 24.718 52.486 26.3749C55.3558 28.0318 56.3319 31.6745 58.284 38.96L60.3545 46.6874C62.3067 53.9728 63.2828 57.6156 61.6259 60.4853C59.969 63.3551 56.3263 64.3312 49.0408 66.2833L41.3134 68.3538C34.028 70.306 30.3852 71.282 27.5155 69.6252C24.6457 67.9683 23.6697 64.3256 21.7175 57.0401L19.647 49.3127Z" fill="#31313D"/>
  <path d="M28 44.0002C28 36.4578 28 32.6865 30.3431 30.3434C32.6863 28.0002 36.4575 28.0002 44 28.0002H52C59.5425 28.0002 63.3137 28.0002 65.6569 30.3434C68 32.6865 68 36.4578 68 44.0002V52.0002C68 59.5427 68 63.314 65.6569 65.6571C63.3137 68.0002 59.5425 68.0002 52 68.0002H44C36.4575 68.0002 32.6863 68.0002 30.3431 65.6571C28 63.314 28 59.5427 28 52.0002V44.0002Z" fill="#494979"/>
  <path d="M53.7929 75.2707H28.5C28.3131 75.2707 28.2196 75.2707 28.15 75.3109C28.1044 75.3372 28.0665 75.3751 28.0402 75.4207C28 75.4903 28 75.5838 28 75.7707C28 75.9576 28 76.0511 28.0402 76.1207C28.0665 76.1663 28.1044 76.2042 28.15 76.2305C28.2196 76.2707 28.3131 76.2707 28.5 76.2707H53.793L52 78.0636C51.8679 78.1958 51.8018 78.2619 51.781 78.3395C51.7673 78.3904 51.7673 78.4439 51.781 78.4948C51.8018 78.5724 51.8679 78.6385 52 78.7707C52.1322 78.9029 52.1983 78.969 52.2759 78.9898C52.3268 79.0034 52.3804 79.0034 52.4312 78.9898C52.5089 78.969 52.575 78.9029 52.7071 78.7707L55 76.4778C55.3334 76.1445 55.5 75.9778 55.5 75.7707C55.5 75.5636 55.3334 75.3969 55 75.0636L52.7071 72.7707C52.575 72.6385 52.5089 72.5724 52.4312 72.5516C52.3804 72.538 52.3268 72.538 52.2759 72.5516C52.1983 72.5724 52.1322 72.6385 52 72.7707C51.8679 72.9029 51.8018 72.969 51.781 73.0466C51.7673 73.0975 51.7673 73.151 51.781 73.2019C51.8018 73.2796 51.8679 73.3456 52 73.4778L53.7929 75.2707Z" fill="url(#paint0_linear_8108_6228)"/>
  <defs>
    <linearGradient id="paint0_linear_8108_6228" x1="27" y1="75.7707" x2="55.5" y2="75.7707" gradientUnits="userSpaceOnUse">
      <stop stop-color="white" stop-opacity="0"/>
      <stop offset="1" stop-color="white" stop-opacity="0.4"/>
    </linearGradient>
  </defs>
</svg>
