<svg width="96" height="96" viewBox="0 0 96 96" fill="none" xmlns="http://www.w3.org/2000/svg">
  <path d="M28 44C28 36.4575 28 32.6863 30.3431 30.3431C32.6863 28 36.4575 28 44 28H52C59.5425 28 63.3137 28 65.6569 30.3431C68 32.6863 68 36.4575 68 44V52C68 59.5425 68 63.3137 65.6569 65.6569C63.3137 68 59.5425 68 52 68H44C36.4575 68 32.6863 68 30.3431 65.6569C28 63.3137 28 59.5425 28 52V44Z" fill="#232328"/>
  <path d="M37.7163 38.9599C39.6685 31.6745 40.6445 28.0317 43.5143 26.3749C46.384 24.718 50.0268 25.6941 57.3122 27.6462L65.0396 29.7168C72.3251 31.6689 75.9678 32.645 77.6247 35.5147C79.2816 38.3845 78.3055 42.0272 76.3533 49.3127L74.2828 57.0401C72.3307 64.3256 71.3546 67.9683 68.4848 69.6252C65.6151 71.282 61.9723 70.306 54.6869 68.3538L46.9595 66.2833C39.674 64.3311 36.0313 63.3551 34.3744 60.4853C32.7176 57.6156 33.6936 53.9728 35.6458 46.6873L37.7163 38.9599Z" fill="#31313D"/>
  <path d="M48.6797 34.5362C52.4509 28.0042 54.3365 24.7383 57.5373 23.8806C60.7381 23.023 64.0041 24.9086 70.5361 28.6798L77.4643 32.6798C83.9963 36.451 87.2623 38.3367 88.1199 41.5375C88.9776 44.7383 87.0919 48.0042 83.3207 54.5362L79.3207 61.4644C75.5495 67.9964 73.6638 71.2624 70.4631 72.12C67.2623 72.9777 63.9963 71.0921 57.4643 67.3208L50.5361 63.3208C44.0041 59.5496 40.7381 57.664 39.8805 54.4632C39.0228 51.2624 40.9085 47.9964 44.6797 41.4644L48.6797 34.5362Z" fill="#494979"/>
  <path d="M53.7929 75.2707H28.5C28.3131 75.2707 28.2196 75.2707 28.15 75.3109C28.1044 75.3372 28.0665 75.3751 28.0402 75.4207C28 75.4903 28 75.5838 28 75.7707C28 75.9576 28 76.0511 28.0402 76.1207C28.0665 76.1663 28.1044 76.2042 28.15 76.2305C28.2196 76.2707 28.3131 76.2707 28.5 76.2707H53.793L52 78.0636C51.8679 78.1958 51.8018 78.2619 51.781 78.3395C51.7673 78.3904 51.7673 78.4439 51.781 78.4948C51.8018 78.5724 51.8679 78.6385 52 78.7707C52.1322 78.9029 52.1983 78.969 52.2759 78.9898C52.3268 79.0034 52.3804 79.0034 52.4312 78.9898C52.5089 78.969 52.575 78.9029 52.7071 78.7707L55 76.4778C55.3334 76.1445 55.5 75.9778 55.5 75.7707C55.5 75.5636 55.3334 75.3969 55 75.0636L52.7071 72.7707C52.575 72.6385 52.5089 72.5724 52.4312 72.5516C52.3804 72.538 52.3268 72.538 52.2759 72.5516C52.1983 72.5724 52.1322 72.6385 52 72.7707C51.8679 72.9029 51.8018 72.969 51.781 73.0466C51.7673 73.0975 51.7673 73.151 51.781 73.2019C51.8018 73.2796 51.8679 73.3456 52 73.4778L53.7929 75.2707Z" fill="url(#paint0_linear_8116_13564)"/>
  <defs>
    <linearGradient id="paint0_linear_8116_13564" x1="27" y1="75.7707" x2="55.5" y2="75.7707" gradientUnits="userSpaceOnUse">
      <stop stop-color="white" stop-opacity="0"/>
      <stop offset="1" stop-color="white" stop-opacity="0.4"/>
    </linearGradient>
  </defs>
</svg>
