<svg width="96" height="96" viewBox="0 0 96 96" fill="none" xmlns="http://www.w3.org/2000/svg">
  <path d="M28 52C28 59.5425 28 63.3137 30.3431 65.6569C32.6863 68 36.4575 68 44 68H52C59.5425 68 63.3137 68 65.6569 65.6569C68 63.3137 68 59.5425 68 52V44C68 36.4575 68 32.6863 65.6569 30.3431C63.3137 28 59.5425 28 52 28L44 28C36.4575 28 32.6863 28 30.3431 30.3431C28 32.6863 28 36.4575 28 44V52Z" fill="#232328"/>
  <path d="M21.7163 57.0401C23.6685 64.3255 24.6445 67.9683 27.5143 69.6251C30.384 71.282 34.0268 70.3059 41.3122 68.3538L49.0396 66.2832C56.3251 64.3311 59.9678 63.355 61.6247 60.4853C63.2816 57.6155 62.3055 53.9728 60.3533 46.6873L58.2828 38.9599C56.3307 31.6744 55.3546 28.0317 52.4848 26.3748C49.6151 24.718 45.9723 25.694 38.6869 27.6462L30.9595 29.7167C23.674 31.6689 20.0313 32.6449 18.3744 35.5147C16.7176 38.3844 17.6936 42.0272 19.6458 49.3127L21.7163 57.0401Z" fill="#31313D"/>
  <path d="M47.3203 34.5362C43.5491 28.0042 41.6635 24.7383 38.4627 23.8806C35.2619 23.023 31.9959 24.9086 25.4639 28.6798L18.5357 32.6798C12.0037 36.451 8.73774 38.3367 7.88009 41.5375C7.02244 44.7383 8.90806 48.0042 12.6793 54.5362L16.6793 61.4644C20.4505 67.9964 22.3362 71.2624 25.5369 72.12C28.7377 72.9777 32.0037 71.0921 38.5357 67.3208L45.4639 63.3208C51.9959 59.5496 55.2619 57.664 56.1195 54.4632C56.9772 51.2624 55.0915 47.9964 51.3203 41.4644L47.3203 34.5362Z" fill="#494979"/>
  <path d="M42.2071 76.7293L67.5 76.7293C67.6869 76.7293 67.7804 76.7293 67.85 76.6891C67.8956 76.6628 67.9335 76.6249 67.9598 76.5793C68 76.5097 68 76.4162 68 76.2293C68 76.0424 68 75.9489 67.9598 75.8793C67.9335 75.8337 67.8956 75.7958 67.85 75.7695C67.7804 75.7293 67.6869 75.7293 67.5 75.7293L42.207 75.7293L44 73.9364C44.1321 73.8042 44.1982 73.7381 44.219 73.6605C44.2327 73.6096 44.2327 73.5561 44.219 73.5052C44.1982 73.4275 44.1321 73.3615 44 73.2293C43.8678 73.0971 43.8017 73.031 43.7241 73.0102C43.6732 72.9966 43.6196 72.9966 43.5688 73.0102C43.4911 73.031 43.425 73.0971 43.2929 73.2293L41 75.5222C40.6666 75.8555 40.5 76.0222 40.5 76.2293C40.5 76.4364 40.6666 76.6031 41 76.9364L43.2929 79.2293C43.425 79.3615 43.4911 79.4275 43.5688 79.4484C43.6196 79.462 43.6732 79.462 43.7241 79.4484C43.8017 79.4275 43.8678 79.3615 44 79.2293C44.1321 79.0971 44.1982 79.031 44.219 78.9534C44.2327 78.9025 44.2327 78.849 44.219 78.7981C44.1982 78.7204 44.1321 78.6544 44 78.5222L42.2071 76.7293Z" fill="url(#paint0_linear_8116_13563)"/>
  <defs>
    <linearGradient id="paint0_linear_8116_13563" x1="69" y1="76.2293" x2="40.5" y2="76.2293" gradientUnits="userSpaceOnUse">
      <stop stop-color="white" stop-opacity="0"/>
      <stop offset="1" stop-color="white" stop-opacity="0.4"/>
    </linearGradient>
  </defs>
</svg>
