<svg width="96" height="96" viewBox="0 0 96 96" fill="none" xmlns="http://www.w3.org/2000/svg">
  <g filter="url(#filter0_f_8116_42495)">
    <path d="M32.4239 46.2721C33.0812 38.7584 33.4099 35.0015 35.9484 32.8715C38.4868 30.7414 42.2437 31.0701 49.7575 31.7275L57.727 32.4247C65.2408 33.0821 68.9977 33.4108 71.1277 35.9492C73.2577 38.4877 72.929 42.2446 72.2717 49.7584L71.5744 57.7279C70.917 65.2417 70.5884 68.9986 68.0499 71.1286C65.5115 73.2586 61.7546 72.9299 54.2408 72.2725L46.2712 71.5753C38.7575 70.9179 35.0006 70.5892 32.8706 68.0508C30.7406 65.5123 31.0693 61.7555 31.7266 54.2417L32.4239 46.2721Z" fill="#232328"/>
  </g>
  <g filter="url(#filter1_f_8116_42495)">
    <path d="M23.7285 41.7583C23.0711 34.2446 22.7424 30.4877 24.8724 27.9492C27.0024 25.4108 30.7593 25.0821 38.2731 24.4247L46.2427 23.7275C53.7564 23.0701 57.5133 22.7414 60.0518 24.8714C62.5902 27.0014 62.9189 30.7583 63.5763 38.2721L64.2735 46.2417C64.9309 53.7554 65.2596 57.5123 63.1296 60.0508C60.9995 62.5892 57.2427 62.9179 49.7289 63.5753L41.7593 64.2725C34.2456 64.9299 30.4887 65.2586 27.9502 63.1286C25.4118 60.9985 25.0831 57.2417 24.4257 49.7279L23.7285 41.7583Z" fill="#232328"/>
  </g>
  <path d="M28 44C28 36.4575 28 32.6863 30.3431 30.3431C32.6863 28 36.4575 28 44 28H52C59.5425 28 63.3137 28 65.6569 30.3431C68 32.6863 68 36.4575 68 44V52C68 59.5425 68 63.3137 65.6569 65.6569C63.3137 68 59.5425 68 52 68H44C36.4575 68 32.6863 68 30.3431 65.6569C28 63.3137 28 59.5425 28 52V44Z" fill="#494979"/>
  <defs>
    <filter id="filter0_f_8116_42495" x="27.2305" y="27.231" width="49.5371" height="49.5381" filterUnits="userSpaceOnUse" color-interpolation-filters="sRGB">
      <feFlood flood-opacity="0" result="BackgroundImageFix"/>
      <feBlend mode="normal" in="SourceGraphic" in2="BackgroundImageFix" result="shape"/>
      <feGaussianBlur stdDeviation="2" result="effect1_foregroundBlur_8116_42495"/>
    </filter>
    <filter id="filter1_f_8116_42495" x="21.2324" y="21.231" width="45.5371" height="45.5381" filterUnits="userSpaceOnUse" color-interpolation-filters="sRGB">
      <feFlood flood-opacity="0" result="BackgroundImageFix"/>
      <feBlend mode="normal" in="SourceGraphic" in2="BackgroundImageFix" result="shape"/>
      <feGaussianBlur stdDeviation="1" result="effect1_foregroundBlur_8116_42495"/>
    </filter>
  </defs>
</svg>
