<svg width="96" height="96" viewBox="0 0 96 96" fill="none" xmlns="http://www.w3.org/2000/svg">
  <path fill-rule="evenodd" clip-rule="evenodd" d="M48 29.5C37.7827 29.5 29.5 37.7827 29.5 48C29.5 58.2173 37.7827 66.5 48 66.5C58.2173 66.5 66.5 58.2173 66.5 48C66.5 37.7827 58.2173 29.5 48 29.5ZM26.5 48C26.5 36.1259 36.1259 26.5 48 26.5C59.8741 26.5 69.5 36.1259 69.5 48C69.5 59.8741 59.8741 69.5 48 69.5C36.1259 69.5 26.5 59.8741 26.5 48Z" fill="#494979"/>
  <path fill-rule="evenodd" clip-rule="evenodd" d="M57.0001 57C56.6706 57.3295 56.5059 57.4942 56.3221 57.5703C56.0771 57.6718 55.8018 57.6718 55.5568 57.5703C55.373 57.4942 55.2083 57.3295 54.8788 57L39.0001 41.1213C38.6706 40.7918 38.5059 40.6271 38.4298 40.4433C38.3283 40.1983 38.3283 39.923 38.4298 39.678C38.5059 39.4942 38.6706 39.3295 39.0001 39C39.3296 38.6705 39.4943 38.5058 39.6781 38.4297C39.9231 38.3282 40.1984 38.3282 40.4435 38.4297C40.6272 38.5058 40.792 38.6705 41.1214 39L57.0001 54.8787C57.3296 55.2081 57.4943 55.3729 57.5704 55.5566C57.6719 55.8017 57.6719 56.077 57.5704 56.322C57.4943 56.5058 57.3296 56.6705 57.0001 57Z" fill="#494979"/>
</svg>
