<svg width="96" height="96" viewBox="0 0 96 96" fill="none" xmlns="http://www.w3.org/2000/svg">
  <path d="M52 28C59.5425 28 63.3137 28 65.6569 30.3431C68 32.6863 68 36.4575 68 44L68 52C68 59.5425 68 63.3137 65.6569 65.6569C63.3137 68 59.5425 68 52 68L44 68C36.4575 68 32.6863 68 30.3431 65.6569C28 63.3137 28 59.5425 28 52L28 44C28 36.4575 28 32.6863 30.3431 30.3431C32.6863 28 36.4575 28 44 28L52 28Z" fill="#232328"/>
  <path d="M58 28L58 68L38 68L38 28L58 28Z" fill="#494979"/>
  <path d="M64.0215 47.5649L69.3145 47.5649C69.5014 47.5649 69.5948 47.5649 69.6645 47.6051C69.7101 47.6314 69.7479 47.6693 69.7743 47.7149C69.8145 47.7845 69.8145 47.878 69.8145 48.0649C69.8145 48.2518 69.8145 48.3453 69.7743 48.4149C69.7479 48.4605 69.7101 48.4984 69.6645 48.5247C69.5948 48.5649 69.5014 48.5649 69.3145 48.5649L64.0215 48.5649L65.8144 50.3578C65.9466 50.49 66.0127 50.5561 66.0335 50.6337C66.0471 50.6846 66.0471 50.7381 66.0335 50.789C66.0127 50.8666 65.9466 50.9327 65.8144 51.0649C65.6822 51.1971 65.6162 51.2632 65.5385 51.284C65.4876 51.2976 65.4341 51.2976 65.3832 51.284C65.3056 51.2632 65.2395 51.1971 65.1073 51.0649L62.8144 48.772C62.4811 48.4387 62.3144 48.272 62.3144 48.0649C62.3144 47.8578 62.4811 47.6911 62.8144 47.3578L65.1073 45.0649C65.2395 44.9327 65.3056 44.8666 65.3832 44.8458C65.4341 44.8322 65.4876 44.8322 65.5385 44.8458C65.6162 44.8666 65.6822 44.9327 65.8144 45.0649C65.9466 45.1971 66.0127 45.2632 66.0335 45.3408C66.0471 45.3917 66.0471 45.4452 66.0335 45.4961C66.0127 45.5737 65.9466 45.6398 65.8144 45.772L64.0215 47.5649Z" fill="url(#paint0_linear_8116_13728)"/>
  <path d="M31.9785 47.5649H26.6855C26.4986 47.5649 26.4052 47.5649 26.3355 47.6051C26.2899 47.6314 26.2521 47.6693 26.2257 47.7149C26.1855 47.7845 26.1855 47.878 26.1855 48.0649C26.1855 48.2518 26.1855 48.3453 26.2257 48.4149C26.2521 48.4605 26.2899 48.4984 26.3355 48.5247C26.4052 48.5649 26.4986 48.5649 26.6855 48.5649H31.9785L30.1856 50.3578C30.0534 50.49 29.9873 50.5561 29.9665 50.6337C29.9529 50.6846 29.9529 50.7381 29.9665 50.789C29.9873 50.8666 30.0534 50.9327 30.1856 51.0649C30.3178 51.1971 30.3838 51.2632 30.4615 51.284C30.5124 51.2976 30.5659 51.2976 30.6168 51.284C30.6944 51.2632 30.7605 51.1971 30.8927 51.0649L33.1856 48.772C33.5189 48.4387 33.6856 48.272 33.6856 48.0649C33.6856 47.8578 33.5189 47.6911 33.1856 47.3578L30.8927 45.0649C30.7605 44.9327 30.6944 44.8666 30.6168 44.8458C30.5659 44.8322 30.5124 44.8322 30.4615 44.8458C30.3838 44.8666 30.3178 44.9327 30.1856 45.0649C30.0534 45.1971 29.9873 45.2632 29.9665 45.3408C29.9529 45.3917 29.9529 45.4452 29.9665 45.4961C29.9873 45.5737 30.0534 45.6398 30.1856 45.772L31.9785 47.5649Z" fill="url(#paint1_linear_8116_13728)"/>
  <path fill-rule="evenodd" clip-rule="evenodd" d="M58.4 72C58.2114 72 58.1172 72 58.0586 71.9414C58 71.8828 58 71.7886 58 71.6L58 24.4C58 24.2114 58 24.1172 58.0586 24.0586C58.1172 24 58.2114 24 58.4 24L58.6 24C58.7886 24 58.8828 24 58.9414 24.0586C59 24.1172 59 24.2114 59 24.4L59 71.6C59 71.7886 59 71.8828 58.9414 71.9414C58.8828 72 58.7886 72 58.6 72L58.4 72Z" fill="#31313D"/>
  <path fill-rule="evenodd" clip-rule="evenodd" d="M37.4 72C37.2114 72 37.1172 72 37.0586 71.9414C37 71.8828 37 71.7886 37 71.6L37 24.4C37 24.2114 37 24.1172 37.0586 24.0586C37.1172 24 37.2114 24 37.4 24L37.6 24C37.7886 24 37.8828 24 37.9414 24.0586C38 24.1172 38 24.2114 38 24.4L38 71.6C38 71.7886 38 71.8828 37.9414 71.9414C37.8828 72 37.7886 72 37.6 72L37.4 72Z" fill="#31313D"/>
  <defs>
    <linearGradient id="paint0_linear_8116_13728" x1="70.0872" y1="48.0649" x2="62.3144" y2="48.0649" gradientUnits="userSpaceOnUse">
      <stop stop-color="white" stop-opacity="0"/>
      <stop offset="1" stop-color="white" stop-opacity="0.4"/>
    </linearGradient>
    <linearGradient id="paint1_linear_8116_13728" x1="25.9128" y1="48.0649" x2="33.6856" y2="48.0649" gradientUnits="userSpaceOnUse">
      <stop stop-color="white" stop-opacity="0"/>
      <stop offset="1" stop-color="white" stop-opacity="0.4"/>
    </linearGradient>
  </defs>
</svg>
