<svg width="96" height="96" viewBox="0 0 96 96" fill="none" xmlns="http://www.w3.org/2000/svg">
  <path d="M68 52C68 59.5425 68 63.3137 65.6569 65.6569C63.3137 68 59.5425 68 52 68L44 68C36.4575 68 32.6863 68 30.3431 65.6569C28 63.3137 28 59.5425 28 52L28 44C28 36.4575 28 32.6863 30.3431 30.3431C32.6863 28 36.4575 28 44 28L52 28C59.5425 28 63.3137 28 65.6569 30.3431C68 32.6863 68 36.4575 68 44L68 52Z" fill="#232328"/>
  <path d="M68 58L28 58L28 38L68 38L68 58Z" fill="#494979"/>
  <path d="M47.5646 67.978L47.5646 62.6851C47.5646 62.4982 47.5646 62.4047 47.6048 62.3351C47.6312 62.2895 47.669 62.2516 47.7146 62.2253C47.7842 62.1851 47.8777 62.1851 48.0646 62.1851C48.2516 62.1851 48.345 62.1851 48.4146 62.2253C48.4602 62.2516 48.4981 62.2895 48.5244 62.3351C48.5646 62.4047 48.5646 62.4982 48.5646 62.6851L48.5646 67.9781L50.3575 66.1851C50.4897 66.053 50.5558 65.9869 50.6335 65.9661C50.6843 65.9524 50.7379 65.9524 50.7887 65.9661C50.8664 65.9869 50.9325 66.053 51.0647 66.1851C51.1968 66.3173 51.2629 66.3834 51.2837 66.4611C51.2974 66.5119 51.2974 66.5655 51.2837 66.6163C51.2629 66.694 51.1968 66.7601 51.0647 66.8922L48.7718 69.1851C48.4384 69.5185 48.2718 69.6851 48.0647 69.6851C47.8575 69.6851 47.6909 69.5185 47.3576 69.1851L45.0647 66.8922C44.9325 66.7601 44.8664 66.694 44.8456 66.6163C44.832 66.5655 44.832 66.5119 44.8456 66.4611C44.8664 66.3834 44.9325 66.3173 45.0647 66.1851C45.1968 66.053 45.2629 65.9869 45.3406 65.9661C45.3914 65.9524 45.445 65.9524 45.4959 65.9661C45.5735 65.9869 45.6396 66.053 45.7718 66.1851L47.5646 67.978Z" fill="url(#paint0_linear_8108_5305)"/>
  <path d="M47.5646 28.022L47.5646 33.3149C47.5646 33.5018 47.5646 33.5953 47.6048 33.6649C47.6312 33.7105 47.669 33.7484 47.7146 33.7747C47.7842 33.8149 47.8777 33.8149 48.0646 33.8149C48.2516 33.8149 48.345 33.8149 48.4146 33.7747C48.4602 33.7484 48.4981 33.7105 48.5244 33.6649C48.5646 33.5953 48.5646 33.5018 48.5646 33.3149L48.5646 28.022L50.3575 29.8149C50.4897 29.947 50.5558 30.0131 50.6335 30.0339C50.6843 30.0476 50.7379 30.0476 50.7887 30.0339C50.8664 30.0131 50.9325 29.947 51.0647 29.8149C51.1968 29.6827 51.2629 29.6166 51.2837 29.539C51.2974 29.4881 51.2974 29.4345 51.2837 29.3837C51.2629 29.306 51.1968 29.2399 51.0647 29.1078L48.7718 26.8149C48.4384 26.4815 48.2718 26.3149 48.0647 26.3149C47.8575 26.3149 47.6909 26.4815 47.3576 26.8149L45.0647 29.1078C44.9325 29.2399 44.8664 29.306 44.8456 29.3837C44.832 29.4345 44.832 29.4881 44.8456 29.539C44.8664 29.6166 44.9325 29.6827 45.0647 29.8149C45.1968 29.947 45.2629 30.0131 45.3406 30.0339C45.3914 30.0476 45.445 30.0476 45.4959 30.0339C45.5735 30.0131 45.6396 29.947 45.7718 29.8149L47.5646 28.022Z" fill="url(#paint1_linear_8108_5305)"/>
  <path fill-rule="evenodd" clip-rule="evenodd" d="M24 58.4C24 58.2114 24 58.1172 24.0586 58.0586C24.1172 58 24.2114 58 24.4 58L71.6 58C71.7886 58 71.8828 58 71.9414 58.0586C72 58.1172 72 58.2114 72 58.4L72 58.6C72 58.7886 72 58.8828 71.9414 58.9414C71.8828 59 71.7886 59 71.6 59L24.4 59C24.2114 59 24.1172 59 24.0586 58.9414C24 58.8828 24 58.7886 24 58.6L24 58.4Z" fill="#31313D"/>
  <path fill-rule="evenodd" clip-rule="evenodd" d="M24 37.4C24 37.2114 24 37.1172 24.0586 37.0586C24.1172 37 24.2114 37 24.4 37L71.6 37C71.7886 37 71.8828 37 71.9414 37.0586C72 37.1172 72 37.2114 72 37.4L72 37.6C72 37.7886 72 37.8828 71.9414 37.9414C71.8828 38 71.7886 38 71.6 38L24.4 38C24.2114 38 24.1172 38 24.0586 37.9414C24 37.8828 24 37.7886 24 37.6L24 37.4Z" fill="#31313D"/>
  <defs>
    <linearGradient id="paint0_linear_8108_5305" x1="48.0647" y1="61.9124" x2="48.0647" y2="69.6851" gradientUnits="userSpaceOnUse">
      <stop stop-color="white" stop-opacity="0"/>
      <stop offset="1" stop-color="white" stop-opacity="0.4"/>
    </linearGradient>
    <linearGradient id="paint1_linear_8108_5305" x1="48.0647" y1="34.0876" x2="48.0647" y2="26.3149" gradientUnits="userSpaceOnUse">
      <stop stop-color="white" stop-opacity="0"/>
      <stop offset="1" stop-color="white" stop-opacity="0.4"/>
    </linearGradient>
  </defs>
</svg>
