<svg width="96" height="96" viewBox="0 0 96 96" fill="none" xmlns="http://www.w3.org/2000/svg">
  <path d="M68 52C68 59.5425 68 63.3137 65.6569 65.6569C63.3137 68 59.5425 68 52 68L44 68C36.4575 68 32.6863 68 30.3431 65.6569C28 63.3137 28 59.5425 28 52L28 44C28 36.4575 28 32.6863 30.3431 30.3431C32.6863 28 36.4575 28 44 28L52 28C59.5425 28 63.3137 28 65.6569 30.3431C68 32.6863 68 36.4575 68 44L68 52Z" fill="#232328"/>
  <path d="M68 58L28 58L28 38L68 38L68 58Z" fill="#494979"/>
  <path d="M48.4344 64.022L48.4344 69.3149C48.4344 69.5018 48.4344 69.5953 48.3942 69.6649C48.3679 69.7105 48.33 69.7484 48.2844 69.7747C48.2148 69.8149 48.1213 69.8149 47.9344 69.8149C47.7475 69.8149 47.654 69.8149 47.5844 69.7747C47.5388 69.7484 47.5009 69.7105 47.4746 69.6649C47.4344 69.5953 47.4344 69.5018 47.4344 69.3149L47.4344 64.0219L45.6415 65.8149C45.5093 65.947 45.4432 66.0131 45.3656 66.0339C45.3147 66.0476 45.2611 66.0476 45.2103 66.0339C45.1326 66.0131 45.0665 65.947 44.9344 65.8149C44.8022 65.6827 44.7361 65.6166 44.7153 65.5389C44.7017 65.4881 44.7017 65.4345 44.7153 65.3837C44.7361 65.306 44.8022 65.2399 44.9344 65.1078L47.2273 62.8149C47.5606 62.4815 47.7273 62.3149 47.9344 62.3149C48.1415 62.3149 48.3081 62.4815 48.6415 62.8149L50.9344 65.1078C51.0665 65.2399 51.1326 65.306 51.1534 65.3837C51.1671 65.4345 51.1671 65.4881 51.1534 65.539C51.1326 65.6166 51.0665 65.6827 50.9344 65.8149C50.8022 65.947 50.7361 66.0131 50.6585 66.0339C50.6076 66.0476 50.554 66.0476 50.5032 66.0339C50.4255 66.0131 50.3594 65.947 50.2273 65.8149L48.4344 64.022Z" fill="url(#paint0_linear_8116_13727)"/>
  <path d="M48.4344 31.978L48.4344 26.6851C48.4344 26.4982 48.4344 26.4047 48.3942 26.3351C48.3679 26.2895 48.33 26.2516 48.2844 26.2253C48.2148 26.1851 48.1213 26.1851 47.9344 26.1851C47.7475 26.1851 47.654 26.1851 47.5844 26.2253C47.5388 26.2516 47.5009 26.2895 47.4746 26.3351C47.4344 26.4047 47.4344 26.4982 47.4344 26.6851L47.4344 31.978L45.6415 30.1851C45.5093 30.053 45.4432 29.9869 45.3656 29.9661C45.3147 29.9524 45.2611 29.9524 45.2103 29.9661C45.1326 29.9869 45.0665 30.053 44.9344 30.1851C44.8022 30.3173 44.7361 30.3834 44.7153 30.461C44.7017 30.5119 44.7017 30.5655 44.7153 30.6163C44.7361 30.694 44.8022 30.7601 44.9344 30.8922L47.2273 33.1851C47.5606 33.5185 47.7273 33.6851 47.9344 33.6851C48.1415 33.6851 48.3081 33.5185 48.6415 33.1851L50.9344 30.8922C51.0665 30.7601 51.1326 30.694 51.1534 30.6163C51.1671 30.5655 51.1671 30.5119 51.1534 30.461C51.1326 30.3834 51.0665 30.3173 50.9344 30.1851C50.8022 30.053 50.7361 29.9869 50.6585 29.9661C50.6076 29.9524 50.554 29.9524 50.5032 29.9661C50.4255 29.9869 50.3594 30.053 50.2273 30.1851L48.4344 31.978Z" fill="url(#paint1_linear_8116_13727)"/>
  <path fill-rule="evenodd" clip-rule="evenodd" d="M24 58.4C24 58.2114 24 58.1172 24.0586 58.0586C24.1172 58 24.2114 58 24.4 58L71.6 58C71.7886 58 71.8828 58 71.9414 58.0586C72 58.1172 72 58.2114 72 58.4L72 58.6C72 58.7886 72 58.8828 71.9414 58.9414C71.8828 59 71.7886 59 71.6 59L24.4 59C24.2114 59 24.1172 59 24.0586 58.9414C24 58.8828 24 58.7886 24 58.6L24 58.4Z" fill="#31313D"/>
  <path fill-rule="evenodd" clip-rule="evenodd" d="M24 37.4C24 37.2114 24 37.1172 24.0586 37.0586C24.1172 37 24.2114 37 24.4 37L71.6 37C71.7886 37 71.8828 37 71.9414 37.0586C72 37.1172 72 37.2114 72 37.4L72 37.6C72 37.7886 72 37.8828 71.9414 37.9414C71.8828 38 71.7886 38 71.6 38L24.4 38C24.2114 38 24.1172 38 24.0586 37.9414C24 37.8828 24 37.7886 24 37.6L24 37.4Z" fill="#31313D"/>
  <defs>
    <linearGradient id="paint0_linear_8116_13727" x1="47.9344" y1="70.0876" x2="47.9344" y2="62.3149" gradientUnits="userSpaceOnUse">
      <stop stop-color="white" stop-opacity="0"/>
      <stop offset="1" stop-color="white" stop-opacity="0.4"/>
    </linearGradient>
    <linearGradient id="paint1_linear_8116_13727" x1="47.9344" y1="25.9124" x2="47.9344" y2="33.6851" gradientUnits="userSpaceOnUse">
      <stop stop-color="white" stop-opacity="0"/>
      <stop offset="1" stop-color="white" stop-opacity="0.4"/>
    </linearGradient>
  </defs>
</svg>
