<svg width="96" height="96" viewBox="0 0 96 96" fill="none" xmlns="http://www.w3.org/2000/svg">
  <g clip-path="url(#clip0_8110_10840)">
    <path d="M53.7929 75.2707H28.5C28.3131 75.2707 28.2196 75.2707 28.15 75.3109C28.1044 75.3372 28.0665 75.3751 28.0402 75.4207C28 75.4903 28 75.5838 28 75.7707C28 75.9576 28 76.0511 28.0402 76.1207C28.0665 76.1663 28.1044 76.2042 28.15 76.2305C28.2196 76.2707 28.3131 76.2707 28.5 76.2707H53.793L52 78.0636C51.8679 78.1958 51.8018 78.2619 51.781 78.3395C51.7673 78.3904 51.7673 78.4439 51.781 78.4948C51.8018 78.5724 51.8679 78.6385 52 78.7707C52.1322 78.9029 52.1983 78.969 52.2759 78.9898C52.3268 79.0034 52.3804 79.0034 52.4312 78.9898C52.5089 78.969 52.575 78.9029 52.7071 78.7707L55 76.4778C55.3334 76.1445 55.5 75.9778 55.5 75.7707C55.5 75.5636 55.3334 75.3969 55 75.0636L52.7071 72.7707C52.575 72.6385 52.5089 72.5724 52.4312 72.5516C52.3804 72.538 52.3268 72.538 52.2759 72.5516C52.1983 72.5724 52.1322 72.6385 52 72.7707C51.8679 72.9029 51.8018 72.969 51.781 73.0466C51.7673 73.0975 51.7673 73.151 51.781 73.2019C51.8018 73.2796 51.8679 73.3456 52 73.4778L53.7929 75.2707Z" fill="url(#paint0_linear_8110_10840)"/>
    <path d="M-4 44C-4 36.4575 -4 32.6863 -1.65685 30.3431C0.686292 28 4.45753 28 12 28H20C27.5425 28 31.3137 28 33.6569 30.3431C36 32.6863 36 36.4575 36 44V52C36 59.5425 36 63.3137 33.6569 65.6569C31.3137 68 27.5425 68 20 68H12C4.45753 68 0.686292 68 -1.65685 65.6569C-4 63.3137 -4 59.5425 -4 52V44Z" fill="#232328"/>
    <path d="M12 44C12 36.4575 12 32.6863 14.3431 30.3431C16.6863 28 20.4575 28 28 28H36C43.5425 28 47.3137 28 49.6569 30.3431C52 32.6863 52 36.4575 52 44V52C52 59.5425 52 63.3137 49.6569 65.6569C47.3137 68 43.5425 68 36 68H28C20.4575 68 16.6863 68 14.3431 65.6569C12 63.3137 12 59.5425 12 52V44Z" fill="#31313D"/>
    <path d="M28 44C28 36.4575 28 32.6863 30.3431 30.3431C32.6863 28 36.4575 28 44 28H52C59.5425 28 63.3137 28 65.6569 30.3431C68 32.6863 68 36.4575 68 44V52C68 59.5425 68 63.3137 65.6569 65.6569C63.3137 68 59.5425 68 52 68H44C36.4575 68 32.6863 68 30.3431 65.6569C28 63.3137 28 59.5425 28 52V44Z" fill="#494979"/>
    <path d="M25.862 65.14C25.8264 65.0541 25.8087 65.0112 25.7868 64.9784C25.6969 64.8439 25.5348 64.7768 25.3762 64.8083C25.3375 64.816 25.2946 64.8338 25.2087 64.8694L20.5893 66.7828C20.5035 66.8183 20.4605 66.8361 20.4278 66.858C20.2933 66.9479 20.2261 67.11 20.2577 67.2686C20.2654 67.3073 20.2832 67.3502 20.3187 67.4361C20.3543 67.5219 20.3721 67.5648 20.394 67.5976C20.4838 67.7321 20.6459 67.7992 20.8046 67.7677C20.8432 67.76 20.8862 67.7422 20.972 67.7067L25.5914 65.7932C25.6773 65.7577 25.7202 65.7399 25.753 65.718C25.8875 65.6281 25.9546 65.4661 25.923 65.3074C25.9154 65.2687 25.8976 65.2258 25.862 65.14Z" fill="url(#paint1_linear_8110_10840)"/>
    <path d="M31.1092 70.388C31.0233 70.3524 30.9804 70.3346 30.9418 70.327C30.7831 70.2954 30.621 70.3625 30.5311 70.497C30.5093 70.5298 30.4915 70.5727 30.4559 70.6586L28.5425 75.278C28.5069 75.3638 28.4891 75.4068 28.4815 75.4454C28.4499 75.6041 28.517 75.7662 28.6515 75.856C28.6843 75.8779 28.7272 75.8957 28.8131 75.9313C28.8989 75.9668 28.9419 75.9846 28.9805 75.9923C29.1392 76.0239 29.3013 75.9567 29.3911 75.8222C29.413 75.7895 29.4308 75.7465 29.4664 75.6607L31.3798 71.0413C31.4154 70.9554 31.4331 70.9125 31.4408 70.8738C31.4724 70.7152 31.4053 70.5531 31.2707 70.4632C31.238 70.4413 31.195 70.4235 31.1092 70.388Z" fill="url(#paint2_linear_8110_10840)"/>
    <path d="M28.1627 68.087C28.2284 68.1527 28.2612 68.1855 28.2831 68.2183C28.373 68.3528 28.373 68.5282 28.2831 68.6627C28.2612 68.6955 28.2284 68.7284 28.1627 68.7941L24.6271 72.3296C24.5614 72.3953 24.5285 72.4282 24.4958 72.4501C24.3613 72.5399 24.1859 72.5399 24.0513 72.4501C24.0186 72.4282 23.9857 72.3953 23.92 72.3296C23.8543 72.2639 23.8214 72.231 23.7996 72.1983C23.7097 72.0638 23.7097 71.8883 23.7996 71.7538C23.8214 71.7211 23.8543 71.6882 23.92 71.6225L27.4555 68.087C27.5213 68.0213 27.5541 67.9884 27.5869 67.9665C27.7214 67.8766 27.8968 67.8766 28.0313 67.9665C28.0641 67.9884 28.0969 68.0212 28.1627 68.087Z" fill="url(#paint3_linear_8110_10840)"/>
    <path d="M70.138 30.86C70.1736 30.9459 70.1913 30.9888 70.2132 31.0216C70.3031 31.1561 70.4652 31.2232 70.6238 31.1917C70.6625 31.184 70.7054 31.1662 70.7913 31.1306L75.4107 29.2172C75.4965 29.1817 75.5395 29.1639 75.5722 29.142C75.7067 29.0521 75.7739 28.89 75.7423 28.7314C75.7346 28.6927 75.7168 28.6498 75.6813 28.5639C75.6457 28.4781 75.6279 28.4352 75.606 28.4024C75.5162 28.2679 75.3541 28.2008 75.1954 28.2323C75.1568 28.24 75.1138 28.2578 75.028 28.2933L70.4086 30.2068C70.3227 30.2423 70.2798 30.2601 70.247 30.282C70.1125 30.3719 70.0454 30.5339 70.077 30.6926C70.0846 30.7313 70.1024 30.7742 70.138 30.86Z" fill="url(#paint4_linear_8110_10840)"/>
    <path d="M64.8908 25.612C64.9767 25.6476 65.0196 25.6654 65.0582 25.673C65.2169 25.7046 65.379 25.6375 65.4689 25.503C65.4907 25.4702 65.5085 25.4273 65.5441 25.3414L67.4575 20.722C67.4931 20.6362 67.5109 20.5932 67.5185 20.5546C67.5501 20.3959 67.483 20.2338 67.3485 20.144C67.3157 20.1221 67.2728 20.1043 67.1869 20.0687C67.1011 20.0332 67.0581 20.0154 67.0195 20.0077C66.8608 19.9761 66.6987 20.0433 66.6089 20.1778C66.587 20.2105 66.5692 20.2535 66.5336 20.3393L64.6202 24.9587C64.5846 25.0446 64.5669 25.0875 64.5592 25.1262C64.5276 25.2848 64.5947 25.4469 64.7293 25.5368C64.762 25.5587 64.805 25.5765 64.8908 25.612Z" fill="url(#paint5_linear_8110_10840)"/>
    <path d="M67.8373 27.913C67.7716 27.8473 67.7388 27.8145 67.7169 27.7817C67.627 27.6472 67.627 27.4718 67.7169 27.3373C67.7388 27.3045 67.7716 27.2716 67.8373 27.2059L71.3729 23.6704C71.4386 23.6047 71.4714 23.5718 71.5042 23.5499C71.6387 23.4601 71.8141 23.4601 71.9487 23.5499C71.9814 23.5718 72.0143 23.6047 72.08 23.6704C72.1457 23.7361 72.1786 23.769 72.2004 23.8017C72.2903 23.9362 72.2903 24.1117 72.2004 24.2462C72.1786 24.2789 72.1457 24.3118 72.08 24.3775L68.5445 27.913C68.4787 27.9787 68.4459 28.0116 68.4131 28.0335C68.2786 28.1234 68.1032 28.1234 67.9687 28.0335C67.9359 28.0116 67.9031 27.9788 67.8373 27.913Z" fill="url(#paint6_linear_8110_10840)"/>
  </g>
  <defs>
    <linearGradient id="paint0_linear_8110_10840" x1="27" y1="75.7707" x2="55.5" y2="75.7707" gradientUnits="userSpaceOnUse">
      <stop stop-color="white" stop-opacity="0"/>
      <stop offset="1" stop-color="white" stop-opacity="0.4"/>
    </linearGradient>
    <linearGradient id="paint1_linear_8110_10840" x1="30" y1="66" x2="23.5" y2="72" gradientUnits="userSpaceOnUse">
      <stop stop-color="white" stop-opacity="0"/>
      <stop offset="1" stop-color="white" stop-opacity="0.4"/>
    </linearGradient>
    <linearGradient id="paint2_linear_8110_10840" x1="30" y1="66" x2="23.5" y2="72" gradientUnits="userSpaceOnUse">
      <stop stop-color="white" stop-opacity="0"/>
      <stop offset="1" stop-color="white" stop-opacity="0.4"/>
    </linearGradient>
    <linearGradient id="paint3_linear_8110_10840" x1="30" y1="66" x2="23.5" y2="72" gradientUnits="userSpaceOnUse">
      <stop stop-color="white" stop-opacity="0"/>
      <stop offset="1" stop-color="white" stop-opacity="0.4"/>
    </linearGradient>
    <linearGradient id="paint4_linear_8110_10840" x1="66" y1="30" x2="72.5" y2="24" gradientUnits="userSpaceOnUse">
      <stop stop-color="white" stop-opacity="0"/>
      <stop offset="1" stop-color="white" stop-opacity="0.4"/>
    </linearGradient>
    <linearGradient id="paint5_linear_8110_10840" x1="66" y1="30" x2="72.5" y2="24" gradientUnits="userSpaceOnUse">
      <stop stop-color="white" stop-opacity="0"/>
      <stop offset="1" stop-color="white" stop-opacity="0.4"/>
    </linearGradient>
    <linearGradient id="paint6_linear_8110_10840" x1="66" y1="30" x2="72.5" y2="24" gradientUnits="userSpaceOnUse">
      <stop stop-color="white" stop-opacity="0"/>
      <stop offset="1" stop-color="white" stop-opacity="0.4"/>
    </linearGradient>
    <clipPath id="clip0_8110_10840">
      <rect width="96" height="96" fill="white"/>
    </clipPath>
  </defs>
</svg>
