<svg width="96" height="96" viewBox="0 0 96 96" fill="none" xmlns="http://www.w3.org/2000/svg">
  <g clip-path="url(#clip0_8116_13505)">
    <path d="M42.2071 76.7293L67.5 76.7293C67.6869 76.7293 67.7804 76.7293 67.85 76.6891C67.8956 76.6628 67.9335 76.6249 67.9598 76.5793C68 76.5097 68 76.4162 68 76.2293C68 76.0424 68 75.9489 67.9598 75.8793C67.9335 75.8337 67.8956 75.7958 67.85 75.7695C67.7804 75.7293 67.6869 75.7293 67.5 75.7293L42.207 75.7293L44 73.9364C44.1321 73.8042 44.1982 73.7381 44.219 73.6605C44.2327 73.6096 44.2327 73.5561 44.219 73.5052C44.1982 73.4275 44.1321 73.3615 44 73.2293C43.8678 73.0971 43.8017 73.031 43.7241 73.0102C43.6732 72.9966 43.6196 72.9966 43.5688 73.0102C43.4911 73.031 43.425 73.0971 43.2929 73.2293L41 75.5222C40.6666 75.8555 40.5 76.0222 40.5 76.2293C40.5 76.4364 40.6666 76.6031 41 76.9364L43.2929 79.2293C43.425 79.3615 43.4911 79.4275 43.5688 79.4484C43.6196 79.462 43.6732 79.462 43.7241 79.4484C43.8017 79.4275 43.8678 79.3615 44 79.2293C44.1321 79.0971 44.1982 79.031 44.219 78.9534C44.2327 78.9025 44.2327 78.849 44.219 78.7981C44.1982 78.7204 44.1321 78.6544 44 78.5222L42.2071 76.7293Z" fill="url(#paint0_linear_8116_13505)"/>
    <path d="M28 44C28 36.4575 28 32.6863 30.3431 30.3431C32.6863 28 36.4575 28 44 28H52C59.5425 28 63.3137 28 65.6569 30.3431C68 32.6863 68 36.4575 68 44V52C68 59.5425 68 63.3137 65.6569 65.6569C63.3137 68 59.5425 68 52 68H44C36.4575 68 32.6863 68 30.3431 65.6569C28 63.3137 28 59.5425 28 52V44Z" fill="#232328"/>
    <path d="M12 44C12 36.4575 12 32.6863 14.3431 30.3431C16.6863 28 20.4575 28 28 28H36C43.5425 28 47.3137 28 49.6569 30.3431C52 32.6863 52 36.4575 52 44V52C52 59.5425 52 63.3137 49.6569 65.6569C47.3137 68 43.5425 68 36 68H28C20.4575 68 16.6863 68 14.3431 65.6569C12 63.3137 12 59.5425 12 52V44Z" fill="#31313D"/>
    <path d="M-4 44C-4 36.4575 -4 32.6863 -1.65685 30.3431C0.686292 28 4.45753 28 12 28H20C27.5425 28 31.3137 28 33.6569 30.3431C36 32.6863 36 36.4575 36 44V52C36 59.5425 36 63.3137 33.6569 65.6569C31.3137 68 27.5425 68 20 68H12C4.45753 68 0.686292 68 -1.65685 65.6569C-4 63.3137 -4 59.5425 -4 52V44Z" fill="#494979"/>
    <path d="M65.14 70.138C65.0541 70.1736 65.0112 70.1913 64.9784 70.2132C64.8439 70.3031 64.7768 70.4652 64.8083 70.6238C64.816 70.6625 64.8338 70.7054 64.8694 70.7913L66.7828 75.4107C66.8183 75.4965 66.8361 75.5395 66.858 75.5722C66.9479 75.7067 67.11 75.7739 67.2686 75.7423C67.3073 75.7346 67.3502 75.7168 67.4361 75.6813C67.5219 75.6457 67.5648 75.6279 67.5976 75.606C67.7321 75.5161 67.7992 75.3541 67.7677 75.1954C67.76 75.1568 67.7422 75.1138 67.7067 75.028L65.7932 70.4086C65.7577 70.3227 65.7399 70.2798 65.718 70.247C65.6281 70.1125 65.4661 70.0454 65.3074 70.077C65.2687 70.0846 65.2258 70.1024 65.14 70.138Z" fill="url(#paint1_linear_8116_13505)"/>
    <path d="M70.388 64.8908C70.3524 64.9767 70.3346 65.0196 70.327 65.0582C70.2954 65.2169 70.3625 65.379 70.497 65.4689C70.5298 65.4907 70.5727 65.5085 70.6586 65.5441L75.278 67.4575C75.3638 67.4931 75.4068 67.5109 75.4454 67.5185C75.6041 67.5501 75.7662 67.483 75.856 67.3485C75.8779 67.3157 75.8957 67.2728 75.9313 67.1869C75.9668 67.1011 75.9846 67.0581 75.9923 67.0195C76.0239 66.8608 75.9567 66.6987 75.8222 66.6089C75.7895 66.587 75.7465 66.5692 75.6607 66.5336L71.0413 64.6202C70.9554 64.5846 70.9125 64.5669 70.8738 64.5592C70.7152 64.5276 70.5531 64.5947 70.4632 64.7293C70.4413 64.762 70.4235 64.805 70.388 64.8908Z" fill="url(#paint2_linear_8116_13505)"/>
    <path d="M68.087 67.8373C68.1527 67.7716 68.1855 67.7388 68.2183 67.7169C68.3528 67.627 68.5282 67.627 68.6627 67.7169C68.6955 67.7388 68.7284 67.7716 68.7941 67.8373L72.3296 71.3729C72.3953 71.4386 72.4282 71.4714 72.4501 71.5042C72.5399 71.6387 72.5399 71.8141 72.4501 71.9487C72.4282 71.9814 72.3953 72.0143 72.3296 72.08C72.2639 72.1457 72.231 72.1786 72.1983 72.2004C72.0638 72.2903 71.8883 72.2903 71.7538 72.2004C71.7211 72.1786 71.6882 72.1457 71.6225 72.08L68.087 68.5445C68.0213 68.4787 67.9884 68.4459 67.9665 68.4131C67.8766 68.2786 67.8766 68.1032 67.9665 67.9687C67.9884 67.9359 68.0212 67.9031 68.087 67.8373Z" fill="url(#paint3_linear_8116_13505)"/>
  </g>
  <defs>
    <linearGradient id="paint0_linear_8116_13505" x1="69" y1="76.2293" x2="40.5" y2="76.2293" gradientUnits="userSpaceOnUse">
      <stop stop-color="white" stop-opacity="0"/>
      <stop offset="1" stop-color="white" stop-opacity="0.4"/>
    </linearGradient>
    <linearGradient id="paint1_linear_8116_13505" x1="66" y1="66" x2="72" y2="72.5" gradientUnits="userSpaceOnUse">
      <stop stop-color="white" stop-opacity="0"/>
      <stop offset="1" stop-color="white" stop-opacity="0.4"/>
    </linearGradient>
    <linearGradient id="paint2_linear_8116_13505" x1="66" y1="66" x2="72" y2="72.5" gradientUnits="userSpaceOnUse">
      <stop stop-color="white" stop-opacity="0"/>
      <stop offset="1" stop-color="white" stop-opacity="0.4"/>
    </linearGradient>
    <linearGradient id="paint3_linear_8116_13505" x1="66" y1="66" x2="72" y2="72.5" gradientUnits="userSpaceOnUse">
      <stop stop-color="white" stop-opacity="0"/>
      <stop offset="1" stop-color="white" stop-opacity="0.4"/>
    </linearGradient>
    <clipPath id="clip0_8116_13505">
      <rect width="96" height="96" fill="white"/>
    </clipPath>
  </defs>
</svg>
