<svg width="96" height="96" viewBox="0 0 96 96" fill="none" xmlns="http://www.w3.org/2000/svg">
  <path d="M67.9045 75.5825L85.7893 57.6977C85.9215 57.5656 85.9876 57.4995 86.0084 57.4218C86.022 57.371 86.022 57.3174 86.0084 57.2665C85.9876 57.1889 85.9215 57.1228 85.7893 56.9906C85.6572 56.8584 85.5911 56.7924 85.5134 56.7716C85.4626 56.7579 85.409 56.7579 85.3581 56.7716C85.2805 56.7924 85.2144 56.8584 85.0822 56.9906L67.1974 74.8754L67.1974 72.3399C67.1974 72.153 67.1974 72.0595 67.1572 71.9899C67.1309 71.9443 67.093 71.9064 67.0474 71.8801C66.9778 71.8399 66.8843 71.8399 66.6974 71.8399C66.5105 71.8399 66.417 71.8399 66.3474 71.8801C66.3018 71.9064 66.2639 71.9443 66.2376 71.9899C66.1974 72.0595 66.1974 72.153 66.1974 72.3399L66.1974 75.5825C66.1974 76.0539 66.1974 76.2896 66.3438 76.4361C66.4903 76.5825 66.726 76.5825 67.1974 76.5825L70.44 76.5825C70.627 76.5825 70.7204 76.5825 70.79 76.5423C70.8356 76.516 70.8735 76.4781 70.8999 76.4325C70.94 76.3629 70.94 76.2694 70.94 76.0825C70.94 75.8956 70.94 75.8021 70.8998 75.7325C70.8735 75.6869 70.8356 75.649 70.79 75.6227C70.7204 75.5825 70.627 75.5825 70.44 75.5825L67.9045 75.5825Z" fill="url(#paint0_linear_8110_10905)"/>
  <path d="M44 28C44 20.4575 44 16.6863 46.3431 14.3431C48.6863 12 52.4575 12 60 12H68C75.5425 12 79.3137 12 81.6569 14.3431C84 16.6863 84 20.4575 84 28V36C84 43.5425 84 47.3137 81.6569 49.6569C79.3137 52 75.5425 52 68 52H60C52.4575 52 48.6863 52 46.3431 49.6569C44 47.3137 44 43.5425 44 36V28Z" fill="#232328"/>
  <path d="M36 36C36 28.4575 36 24.6863 38.3431 22.3431C40.6863 20 44.4575 20 52 20H60C67.5425 20 71.3137 20 73.6569 22.3431C76 24.6863 76 28.4575 76 36V44C76 51.5425 76 55.3137 73.6569 57.6569C71.3137 60 67.5425 60 60 60H52C44.4575 60 40.6863 60 38.3431 57.6569C36 55.3137 36 51.5425 36 44V36Z" fill="#31313D"/>
  <path d="M28 44C28 36.4575 28 32.6863 30.3431 30.3431C32.6863 28 36.4575 28 44 28H52C59.5425 28 63.3137 28 65.6569 30.3431C68 32.6863 68 36.4575 68 44V52C68 59.5425 68 63.3137 65.6569 65.6569C63.3137 68 59.5425 68 52 68H44C36.4575 68 32.6863 68 30.3431 65.6569C28 63.3137 28 59.5425 28 52V44Z" fill="#494979"/>
  <path d="M25.862 65.14C25.8264 65.0541 25.8087 65.0112 25.7868 64.9784C25.6969 64.8439 25.5348 64.7768 25.3762 64.8083C25.3375 64.816 25.2946 64.8338 25.2087 64.8694L20.5893 66.7828C20.5035 66.8183 20.4605 66.8361 20.4278 66.858C20.2933 66.9479 20.2261 67.11 20.2577 67.2686C20.2654 67.3073 20.2832 67.3502 20.3187 67.4361C20.3543 67.5219 20.3721 67.5648 20.394 67.5976C20.4838 67.7321 20.6459 67.7992 20.8046 67.7677C20.8432 67.76 20.8862 67.7422 20.972 67.7067L25.5914 65.7932C25.6773 65.7577 25.7202 65.7399 25.753 65.718C25.8875 65.6281 25.9546 65.4661 25.923 65.3074C25.9154 65.2687 25.8976 65.2258 25.862 65.14Z" fill="url(#paint1_linear_8110_10905)"/>
  <path d="M31.1092 70.388C31.0233 70.3524 30.9804 70.3346 30.9418 70.327C30.7831 70.2954 30.621 70.3625 30.5311 70.497C30.5093 70.5298 30.4915 70.5727 30.4559 70.6586L28.5425 75.278C28.5069 75.3638 28.4891 75.4068 28.4815 75.4454C28.4499 75.6041 28.517 75.7662 28.6515 75.856C28.6843 75.8779 28.7272 75.8957 28.8131 75.9313C28.8989 75.9668 28.9419 75.9846 28.9805 75.9923C29.1392 76.0239 29.3013 75.9567 29.3911 75.8222C29.413 75.7895 29.4308 75.7465 29.4664 75.6607L31.3798 71.0413C31.4154 70.9554 31.4331 70.9125 31.4408 70.8738C31.4724 70.7152 31.4053 70.5531 31.2707 70.4632C31.238 70.4413 31.195 70.4235 31.1092 70.388Z" fill="url(#paint2_linear_8110_10905)"/>
  <path d="M28.1627 68.087C28.2284 68.1527 28.2612 68.1855 28.2831 68.2183C28.373 68.3528 28.373 68.5282 28.2831 68.6627C28.2612 68.6955 28.2284 68.7284 28.1627 68.7941L24.6271 72.3296C24.5614 72.3953 24.5285 72.4282 24.4958 72.4501C24.3613 72.5399 24.1859 72.5399 24.0513 72.4501C24.0186 72.4282 23.9857 72.3953 23.92 72.3296C23.8543 72.2639 23.8214 72.231 23.7996 72.1983C23.7097 72.0638 23.7097 71.8883 23.7996 71.7538C23.8214 71.7211 23.8543 71.6882 23.92 71.6225L27.4555 68.087C27.5213 68.0213 27.5541 67.9884 27.5869 67.9665C27.7214 67.8766 27.8968 67.8766 28.0313 67.9665C28.0641 67.9884 28.0969 68.0212 28.1627 68.087Z" fill="url(#paint3_linear_8110_10905)"/>
  <path d="M70.138 30.86C70.1736 30.9459 70.1913 30.9888 70.2132 31.0216C70.3031 31.1561 70.4652 31.2232 70.6238 31.1917C70.6625 31.184 70.7054 31.1662 70.7913 31.1306L75.4107 29.2172C75.4965 29.1817 75.5395 29.1639 75.5722 29.142C75.7067 29.0521 75.7739 28.89 75.7423 28.7314C75.7346 28.6927 75.7168 28.6498 75.6813 28.5639C75.6457 28.4781 75.6279 28.4352 75.606 28.4024C75.5162 28.2679 75.3541 28.2008 75.1954 28.2323C75.1568 28.24 75.1138 28.2578 75.028 28.2933L70.4086 30.2068C70.3227 30.2423 70.2798 30.2601 70.247 30.282C70.1125 30.3719 70.0454 30.5339 70.077 30.6926C70.0846 30.7313 70.1024 30.7742 70.138 30.86Z" fill="url(#paint4_linear_8110_10905)"/>
  <path d="M64.8908 25.612C64.9767 25.6476 65.0196 25.6654 65.0582 25.673C65.2169 25.7046 65.379 25.6375 65.4689 25.503C65.4907 25.4702 65.5085 25.4273 65.5441 25.3414L67.4575 20.722C67.4931 20.6362 67.5109 20.5932 67.5185 20.5546C67.5501 20.3959 67.483 20.2338 67.3485 20.144C67.3157 20.1221 67.2728 20.1043 67.1869 20.0687C67.1011 20.0332 67.0581 20.0154 67.0195 20.0077C66.8608 19.9761 66.6987 20.0433 66.6089 20.1778C66.587 20.2105 66.5692 20.2535 66.5336 20.3393L64.6202 24.9587C64.5846 25.0446 64.5669 25.0875 64.5592 25.1262C64.5276 25.2848 64.5947 25.4469 64.7293 25.5368C64.762 25.5587 64.805 25.5765 64.8908 25.612Z" fill="url(#paint5_linear_8110_10905)"/>
  <path d="M67.8373 27.913C67.7716 27.8473 67.7388 27.8145 67.7169 27.7817C67.627 27.6472 67.627 27.4718 67.7169 27.3373C67.7388 27.3045 67.7716 27.2716 67.8373 27.2059L71.3729 23.6704C71.4386 23.6047 71.4714 23.5718 71.5042 23.5499C71.6387 23.4601 71.8141 23.4601 71.9487 23.5499C71.9814 23.5718 72.0143 23.6047 72.08 23.6704C72.1457 23.7361 72.1786 23.769 72.2004 23.8017C72.2903 23.9362 72.2903 24.1117 72.2004 24.2462C72.1786 24.2789 72.1457 24.3118 72.08 24.3775L68.5445 27.913C68.4787 27.9787 68.4459 28.0116 68.4131 28.0335C68.2786 28.1234 68.1032 28.1234 67.9687 28.0335C67.9359 28.0116 67.9031 27.9788 67.8373 27.913Z" fill="url(#paint6_linear_8110_10905)"/>
  <defs>
    <linearGradient id="paint0_linear_8110_10905" x1="86.4964" y1="56.2835" x2="66.3438" y2="76.4361" gradientUnits="userSpaceOnUse">
      <stop stop-color="white" stop-opacity="0"/>
      <stop offset="1" stop-color="white" stop-opacity="0.4"/>
    </linearGradient>
    <linearGradient id="paint1_linear_8110_10905" x1="30" y1="66" x2="23.5" y2="72" gradientUnits="userSpaceOnUse">
      <stop stop-color="white" stop-opacity="0"/>
      <stop offset="1" stop-color="white" stop-opacity="0.4"/>
    </linearGradient>
    <linearGradient id="paint2_linear_8110_10905" x1="30" y1="66" x2="23.5" y2="72" gradientUnits="userSpaceOnUse">
      <stop stop-color="white" stop-opacity="0"/>
      <stop offset="1" stop-color="white" stop-opacity="0.4"/>
    </linearGradient>
    <linearGradient id="paint3_linear_8110_10905" x1="30" y1="66" x2="23.5" y2="72" gradientUnits="userSpaceOnUse">
      <stop stop-color="white" stop-opacity="0"/>
      <stop offset="1" stop-color="white" stop-opacity="0.4"/>
    </linearGradient>
    <linearGradient id="paint4_linear_8110_10905" x1="66" y1="30" x2="72.5" y2="24" gradientUnits="userSpaceOnUse">
      <stop stop-color="white" stop-opacity="0"/>
      <stop offset="1" stop-color="white" stop-opacity="0.4"/>
    </linearGradient>
    <linearGradient id="paint5_linear_8110_10905" x1="66" y1="30" x2="72.5" y2="24" gradientUnits="userSpaceOnUse">
      <stop stop-color="white" stop-opacity="0"/>
      <stop offset="1" stop-color="white" stop-opacity="0.4"/>
    </linearGradient>
    <linearGradient id="paint6_linear_8110_10905" x1="66" y1="30" x2="72.5" y2="24" gradientUnits="userSpaceOnUse">
      <stop stop-color="white" stop-opacity="0"/>
      <stop offset="1" stop-color="white" stop-opacity="0.4"/>
    </linearGradient>
  </defs>
</svg>
