<svg width="96" height="96" viewBox="0 0 96 96" fill="none" xmlns="http://www.w3.org/2000/svg">
  <g clip-path="url(#clip0_8116_13504)">
    <path d="M53.7929 75.2707H28.5C28.3131 75.2707 28.2196 75.2707 28.15 75.3109C28.1044 75.3372 28.0665 75.3751 28.0402 75.4207C28 75.4903 28 75.5838 28 75.7707C28 75.9576 28 76.0511 28.0402 76.1207C28.0665 76.1663 28.1044 76.2042 28.15 76.2305C28.2196 76.2707 28.3131 76.2707 28.5 76.2707H53.793L52 78.0636C51.8679 78.1958 51.8018 78.2619 51.781 78.3395C51.7673 78.3904 51.7673 78.4439 51.781 78.4948C51.8018 78.5724 51.8679 78.6385 52 78.7707C52.1322 78.9029 52.1983 78.969 52.2759 78.9898C52.3268 79.0034 52.3804 79.0034 52.4312 78.9898C52.5089 78.969 52.575 78.9029 52.7071 78.7707L55 76.4778C55.3334 76.1445 55.5 75.9778 55.5 75.7707C55.5 75.5636 55.3334 75.3969 55 75.0636L52.7071 72.7707C52.575 72.6385 52.5089 72.5724 52.4312 72.5516C52.3804 72.538 52.3268 72.538 52.2759 72.5516C52.1983 72.5724 52.1322 72.6385 52 72.7707C51.8679 72.9029 51.8018 72.969 51.781 73.0466C51.7673 73.0975 51.7673 73.151 51.781 73.2019C51.8018 73.2796 51.8679 73.3456 52 73.4778L53.7929 75.2707Z" fill="url(#paint0_linear_8116_13504)"/>
    <path d="M28 44C28 36.4575 28 32.6863 30.3431 30.3431C32.6863 28 36.4575 28 44 28H52C59.5425 28 63.3137 28 65.6569 30.3431C68 32.6863 68 36.4575 68 44V52C68 59.5425 68 63.3137 65.6569 65.6569C63.3137 68 59.5425 68 52 68H44C36.4575 68 32.6863 68 30.3431 65.6569C28 63.3137 28 59.5425 28 52V44Z" fill="#232328"/>
    <path d="M44 44C44 36.4575 44 32.6863 46.3431 30.3431C48.6863 28 52.4575 28 60 28H68C75.5425 28 79.3137 28 81.6569 30.3431C84 32.6863 84 36.4575 84 44V52C84 59.5425 84 63.3137 81.6569 65.6569C79.3137 68 75.5425 68 68 68H60C52.4575 68 48.6863 68 46.3431 65.6569C44 63.3137 44 59.5425 44 52V44Z" fill="#31313D"/>
    <path d="M60 44C60 36.4575 60 32.6863 62.3431 30.3431C64.6863 28 68.4575 28 76 28H84C91.5425 28 95.3137 28 97.6569 30.3431C100 32.6863 100 36.4575 100 44V52C100 59.5425 100 63.3137 97.6569 65.6569C95.3137 68 91.5425 68 84 68H76C68.4575 68 64.6863 68 62.3431 65.6569C60 63.3137 60 59.5425 60 52V44Z" fill="#494979"/>
    <path d="M25.862 65.14C25.8264 65.0541 25.8087 65.0112 25.7868 64.9784C25.6969 64.8439 25.5348 64.7768 25.3762 64.8083C25.3375 64.816 25.2946 64.8338 25.2087 64.8694L20.5893 66.7828C20.5035 66.8183 20.4605 66.8361 20.4278 66.858C20.2933 66.9479 20.2261 67.11 20.2577 67.2686C20.2654 67.3073 20.2832 67.3502 20.3187 67.4361C20.3543 67.5219 20.3721 67.5648 20.394 67.5976C20.4838 67.7321 20.6459 67.7992 20.8046 67.7677C20.8432 67.76 20.8862 67.7422 20.972 67.7067L25.5914 65.7932C25.6773 65.7577 25.7202 65.7399 25.753 65.718C25.8875 65.6281 25.9546 65.4661 25.923 65.3074C25.9154 65.2687 25.8976 65.2258 25.862 65.14Z" fill="url(#paint1_linear_8116_13504)"/>
    <path d="M31.1092 70.388C31.0233 70.3524 30.9804 70.3346 30.9418 70.327C30.7831 70.2954 30.621 70.3625 30.5311 70.497C30.5093 70.5298 30.4915 70.5727 30.4559 70.6586L28.5425 75.278C28.5069 75.3638 28.4891 75.4068 28.4815 75.4454C28.4499 75.6041 28.517 75.7662 28.6515 75.856C28.6843 75.8779 28.7272 75.8957 28.8131 75.9313C28.8989 75.9668 28.9419 75.9846 28.9805 75.9923C29.1392 76.0239 29.3013 75.9567 29.3911 75.8222C29.413 75.7895 29.4308 75.7465 29.4664 75.6607L31.3798 71.0413C31.4154 70.9554 31.4331 70.9125 31.4408 70.8738C31.4724 70.7152 31.4053 70.5531 31.2707 70.4632C31.238 70.4413 31.195 70.4235 31.1092 70.388Z" fill="url(#paint2_linear_8116_13504)"/>
    <path d="M28.1627 68.087C28.2284 68.1527 28.2612 68.1855 28.2831 68.2183C28.373 68.3528 28.373 68.5282 28.2831 68.6627C28.2612 68.6955 28.2284 68.7284 28.1627 68.7941L24.6271 72.3296C24.5614 72.3953 24.5285 72.4282 24.4958 72.4501C24.3613 72.5399 24.1859 72.5399 24.0513 72.4501C24.0186 72.4282 23.9857 72.3953 23.92 72.3296C23.8543 72.2639 23.8214 72.231 23.7996 72.1983C23.7097 72.0638 23.7097 71.8883 23.7996 71.7538C23.8214 71.7211 23.8543 71.6882 23.92 71.6225L27.4555 68.087C27.5213 68.0213 27.5541 67.9884 27.5869 67.9665C27.7214 67.8766 27.8968 67.8766 28.0313 67.9665C28.0641 67.9884 28.0969 68.0212 28.1627 68.087Z" fill="url(#paint3_linear_8116_13504)"/>
  </g>
  <defs>
    <linearGradient id="paint0_linear_8116_13504" x1="27" y1="75.7707" x2="55.5" y2="75.7707" gradientUnits="userSpaceOnUse">
      <stop stop-color="white" stop-opacity="0"/>
      <stop offset="1" stop-color="white" stop-opacity="0.4"/>
    </linearGradient>
    <linearGradient id="paint1_linear_8116_13504" x1="30" y1="66" x2="23.5" y2="72" gradientUnits="userSpaceOnUse">
      <stop stop-color="white" stop-opacity="0"/>
      <stop offset="1" stop-color="white" stop-opacity="0.4"/>
    </linearGradient>
    <linearGradient id="paint2_linear_8116_13504" x1="30" y1="66" x2="23.5" y2="72" gradientUnits="userSpaceOnUse">
      <stop stop-color="white" stop-opacity="0"/>
      <stop offset="1" stop-color="white" stop-opacity="0.4"/>
    </linearGradient>
    <linearGradient id="paint3_linear_8116_13504" x1="30" y1="66" x2="23.5" y2="72" gradientUnits="userSpaceOnUse">
      <stop stop-color="white" stop-opacity="0"/>
      <stop offset="1" stop-color="white" stop-opacity="0.4"/>
    </linearGradient>
    <clipPath id="clip0_8116_13504">
      <rect width="96" height="96" fill="white"/>
    </clipPath>
  </defs>
</svg>
