<svg width="96" height="96" viewBox="0 0 96 96" fill="none" xmlns="http://www.w3.org/2000/svg">
  <g clip-path="url(#clip0_8110_10841)">
    <path d="M42.2071 76.7293L67.5 76.7293C67.6869 76.7293 67.7804 76.7293 67.85 76.6891C67.8956 76.6628 67.9335 76.6249 67.9598 76.5793C68 76.5097 68 76.4162 68 76.2293C68 76.0424 68 75.9489 67.9598 75.8793C67.9335 75.8337 67.8956 75.7958 67.85 75.7695C67.7804 75.7293 67.6869 75.7293 67.5 75.7293L42.207 75.7293L44 73.9364C44.1321 73.8042 44.1982 73.7381 44.219 73.6605C44.2327 73.6096 44.2327 73.5561 44.219 73.5052C44.1982 73.4275 44.1321 73.3615 44 73.2293C43.8678 73.0971 43.8017 73.031 43.7241 73.0102C43.6732 72.9966 43.6196 72.9966 43.5688 73.0102C43.4911 73.031 43.425 73.0971 43.2929 73.2293L41 75.5222C40.6666 75.8555 40.5 76.0222 40.5 76.2293C40.5 76.4364 40.6666 76.6031 41 76.9364L43.2929 79.2293C43.425 79.3615 43.4911 79.4275 43.5688 79.4484C43.6196 79.462 43.6732 79.462 43.7241 79.4484C43.8017 79.4275 43.8678 79.3615 44 79.2293C44.1321 79.0971 44.1982 79.031 44.219 78.9534C44.2327 78.9025 44.2327 78.849 44.219 78.7981C44.1982 78.7204 44.1321 78.6544 44 78.5222L42.2071 76.7293Z" fill="url(#paint0_linear_8110_10841)"/>
    <path d="M60 44C60 36.4575 60 32.6863 62.3431 30.3431C64.6863 28 68.4575 28 76 28H84C91.5425 28 95.3137 28 97.6569 30.3431C100 32.6863 100 36.4575 100 44V52C100 59.5425 100 63.3137 97.6569 65.6569C95.3137 68 91.5425 68 84 68H76C68.4575 68 64.6863 68 62.3431 65.6569C60 63.3137 60 59.5425 60 52V44Z" fill="#232328"/>
    <path d="M44 44C44 36.4575 44 32.6863 46.3431 30.3431C48.6863 28 52.4575 28 60 28H68C75.5425 28 79.3137 28 81.6569 30.3431C84 32.6863 84 36.4575 84 44V52C84 59.5425 84 63.3137 81.6569 65.6569C79.3137 68 75.5425 68 68 68H60C52.4575 68 48.6863 68 46.3431 65.6569C44 63.3137 44 59.5425 44 52V44Z" fill="#31313D"/>
    <path d="M28 44C28 36.4575 28 32.6863 30.3431 30.3431C32.6863 28 36.4575 28 44 28H52C59.5425 28 63.3137 28 65.6569 30.3431C68 32.6863 68 36.4575 68 44V52C68 59.5425 68 63.3137 65.6569 65.6569C63.3137 68 59.5425 68 52 68H44C36.4575 68 32.6863 68 30.3431 65.6569C28 63.3137 28 59.5425 28 52V44Z" fill="#494979"/>
    <path d="M30.86 25.862C30.9459 25.8264 30.9888 25.8087 31.0216 25.7868C31.1561 25.6969 31.2232 25.5348 31.1917 25.3762C31.184 25.3375 31.1662 25.2946 31.1306 25.2087L29.2172 20.5893C29.1817 20.5035 29.1639 20.4605 29.142 20.4278C29.0521 20.2933 28.89 20.2261 28.7314 20.2577C28.6927 20.2654 28.6498 20.2832 28.5639 20.3187C28.4781 20.3543 28.4352 20.3721 28.4024 20.394C28.2679 20.4838 28.2008 20.6459 28.2323 20.8046C28.24 20.8432 28.2578 20.8862 28.2933 20.972L30.2068 25.5914C30.2423 25.6773 30.2601 25.7202 30.282 25.753C30.3719 25.8875 30.5339 25.9546 30.6926 25.923C30.7313 25.9154 30.7742 25.8976 30.86 25.862Z" fill="url(#paint1_linear_8110_10841)"/>
    <path d="M25.612 31.1092C25.6476 31.0233 25.6654 30.9804 25.673 30.9418C25.7046 30.7831 25.6375 30.621 25.503 30.5311C25.4702 30.5093 25.4273 30.4915 25.3414 30.4559L20.722 28.5425C20.6362 28.5069 20.5932 28.4891 20.5546 28.4815C20.3959 28.4499 20.2338 28.517 20.144 28.6515C20.1221 28.6843 20.1043 28.7272 20.0687 28.8131C20.0332 28.8989 20.0154 28.9419 20.0077 28.9805C19.9761 29.1392 20.0433 29.3013 20.1778 29.3911C20.2105 29.413 20.2535 29.4308 20.3393 29.4664L24.9587 31.3798C25.0446 31.4154 25.0875 31.4331 25.1262 31.4408C25.2848 31.4724 25.4469 31.4053 25.5368 31.2707C25.5587 31.238 25.5765 31.195 25.612 31.1092Z" fill="url(#paint2_linear_8110_10841)"/>
    <path d="M27.913 28.1627C27.8473 28.2284 27.8145 28.2612 27.7817 28.2831C27.6472 28.373 27.4718 28.373 27.3373 28.2831C27.3045 28.2612 27.2716 28.2284 27.2059 28.1627L23.6704 24.6271C23.6047 24.5614 23.5718 24.5286 23.5499 24.4958C23.4601 24.3613 23.4601 24.1859 23.5499 24.0513C23.5718 24.0186 23.6047 23.9857 23.6704 23.92C23.7361 23.8543 23.769 23.8214 23.8017 23.7996C23.9362 23.7097 24.1117 23.7097 24.2462 23.7996C24.2789 23.8214 24.3118 23.8543 24.3775 23.92L27.913 27.4555C27.9787 27.5213 28.0116 27.5541 28.0335 27.5869C28.1234 27.7214 28.1234 27.8968 28.0335 28.0313C28.0116 28.0641 27.9788 28.0969 27.913 28.1627Z" fill="url(#paint3_linear_8110_10841)"/>
    <path d="M65.14 70.138C65.0541 70.1736 65.0112 70.1913 64.9784 70.2132C64.8439 70.3031 64.7768 70.4652 64.8083 70.6238C64.816 70.6625 64.8338 70.7054 64.8694 70.7913L66.7828 75.4107C66.8183 75.4965 66.8361 75.5395 66.858 75.5722C66.9479 75.7067 67.11 75.7739 67.2686 75.7423C67.3073 75.7346 67.3502 75.7168 67.4361 75.6813C67.5219 75.6457 67.5648 75.6279 67.5976 75.606C67.7321 75.5161 67.7992 75.3541 67.7677 75.1954C67.76 75.1568 67.7422 75.1138 67.7067 75.028L65.7932 70.4086C65.7577 70.3227 65.7399 70.2798 65.718 70.247C65.6281 70.1125 65.4661 70.0454 65.3074 70.077C65.2687 70.0846 65.2258 70.1024 65.14 70.138Z" fill="url(#paint4_linear_8110_10841)"/>
    <path d="M70.388 64.8908C70.3524 64.9767 70.3346 65.0196 70.327 65.0582C70.2954 65.2169 70.3625 65.379 70.497 65.4689C70.5298 65.4907 70.5727 65.5085 70.6586 65.5441L75.278 67.4575C75.3638 67.4931 75.4068 67.5109 75.4454 67.5185C75.6041 67.5501 75.7662 67.483 75.856 67.3485C75.8779 67.3157 75.8957 67.2728 75.9313 67.1869C75.9668 67.1011 75.9846 67.0581 75.9923 67.0195C76.0239 66.8608 75.9567 66.6987 75.8222 66.6089C75.7895 66.587 75.7465 66.5692 75.6607 66.5336L71.0413 64.6202C70.9554 64.5846 70.9125 64.5669 70.8738 64.5592C70.7152 64.5276 70.5531 64.5947 70.4632 64.7293C70.4413 64.762 70.4235 64.805 70.388 64.8908Z" fill="url(#paint5_linear_8110_10841)"/>
    <path d="M68.087 67.8373C68.1527 67.7716 68.1855 67.7388 68.2183 67.7169C68.3528 67.627 68.5282 67.627 68.6627 67.7169C68.6955 67.7388 68.7284 67.7716 68.7941 67.8373L72.3296 71.3729C72.3953 71.4386 72.4282 71.4714 72.4501 71.5042C72.5399 71.6387 72.5399 71.8141 72.4501 71.9487C72.4282 71.9814 72.3953 72.0143 72.3296 72.08C72.2639 72.1457 72.231 72.1786 72.1983 72.2004C72.0638 72.2903 71.8883 72.2903 71.7538 72.2004C71.7211 72.1786 71.6882 72.1457 71.6225 72.08L68.087 68.5445C68.0213 68.4787 67.9884 68.4459 67.9665 68.4131C67.8766 68.2786 67.8766 68.1032 67.9665 67.9687C67.9884 67.9359 68.0212 67.9031 68.087 67.8373Z" fill="url(#paint6_linear_8110_10841)"/>
  </g>
  <defs>
    <linearGradient id="paint0_linear_8110_10841" x1="69" y1="76.2293" x2="40.5" y2="76.2293" gradientUnits="userSpaceOnUse">
      <stop stop-color="white" stop-opacity="0"/>
      <stop offset="1" stop-color="white" stop-opacity="0.4"/>
    </linearGradient>
    <linearGradient id="paint1_linear_8110_10841" x1="30" y1="30" x2="24" y2="23.5" gradientUnits="userSpaceOnUse">
      <stop stop-color="white" stop-opacity="0"/>
      <stop offset="1" stop-color="white" stop-opacity="0.4"/>
    </linearGradient>
    <linearGradient id="paint2_linear_8110_10841" x1="30" y1="30" x2="24" y2="23.5" gradientUnits="userSpaceOnUse">
      <stop stop-color="white" stop-opacity="0"/>
      <stop offset="1" stop-color="white" stop-opacity="0.4"/>
    </linearGradient>
    <linearGradient id="paint3_linear_8110_10841" x1="30" y1="30" x2="24" y2="23.5" gradientUnits="userSpaceOnUse">
      <stop stop-color="white" stop-opacity="0"/>
      <stop offset="1" stop-color="white" stop-opacity="0.4"/>
    </linearGradient>
    <linearGradient id="paint4_linear_8110_10841" x1="66" y1="66" x2="72" y2="72.5" gradientUnits="userSpaceOnUse">
      <stop stop-color="white" stop-opacity="0"/>
      <stop offset="1" stop-color="white" stop-opacity="0.4"/>
    </linearGradient>
    <linearGradient id="paint5_linear_8110_10841" x1="66" y1="66" x2="72" y2="72.5" gradientUnits="userSpaceOnUse">
      <stop stop-color="white" stop-opacity="0"/>
      <stop offset="1" stop-color="white" stop-opacity="0.4"/>
    </linearGradient>
    <linearGradient id="paint6_linear_8110_10841" x1="66" y1="66" x2="72" y2="72.5" gradientUnits="userSpaceOnUse">
      <stop stop-color="white" stop-opacity="0"/>
      <stop offset="1" stop-color="white" stop-opacity="0.4"/>
    </linearGradient>
    <clipPath id="clip0_8110_10841">
      <rect width="96" height="96" fill="white"/>
    </clipPath>
  </defs>
</svg>
