<svg width="96" height="96" viewBox="0 0 96 96" fill="none" xmlns="http://www.w3.org/2000/svg">
  <path d="M28 44C28 36.4575 28 32.6863 30.3431 30.3431C32.6863 28 36.4575 28 44 28H52C59.5425 28 63.3137 28 65.6569 30.3431C68 32.6863 68 36.4575 68 44V52C68 59.5425 68 63.3137 65.6569 65.6569C63.3137 68 59.5425 68 52 68H44C36.4575 68 32.6863 68 30.3431 65.6569C28 63.3137 28 59.5425 28 52V44Z" fill="#232328"/>
  <path d="M20 52C20 44.4575 20 40.6863 22.3431 38.3431C24.6863 36 28.4575 36 36 36H44C51.5425 36 55.3137 36 57.6569 38.3431C60 40.6863 60 44.4575 60 52V60C60 67.5425 60 71.3137 57.6569 73.6569C55.3137 76 51.5425 76 44 76H36C28.4575 76 24.6863 76 22.3431 73.6569C20 71.3137 20 67.5425 20 60V52Z" fill="#31313D"/>
  <path d="M12 60C12 52.4575 12 48.6863 14.3431 46.3431C16.6863 44 20.4575 44 28 44H36C43.5425 44 47.3137 44 49.6569 46.3431C52 48.6863 52 52.4575 52 60V68C52 75.5425 52 79.3137 49.6569 81.6569C47.3137 84 43.5425 84 36 84H28C20.4575 84 16.6863 84 14.3431 81.6569C12 79.3137 12 75.5425 12 68V60Z" fill="#494979"/>
  <path d="M70.138 30.86C70.1736 30.9459 70.1913 30.9888 70.2132 31.0216C70.3031 31.1561 70.4652 31.2232 70.6238 31.1917C70.6625 31.184 70.7054 31.1662 70.7913 31.1306L75.4107 29.2172C75.4965 29.1817 75.5395 29.1639 75.5722 29.142C75.7067 29.0521 75.7739 28.89 75.7423 28.7314C75.7346 28.6927 75.7168 28.6498 75.6813 28.5639C75.6457 28.4781 75.6279 28.4352 75.606 28.4024C75.5162 28.2679 75.3541 28.2008 75.1954 28.2323C75.1568 28.24 75.1138 28.2578 75.028 28.2933L70.4086 30.2068C70.3227 30.2423 70.2798 30.2601 70.247 30.282C70.1125 30.3719 70.0454 30.5339 70.077 30.6926C70.0846 30.7313 70.1024 30.7742 70.138 30.86Z" fill="url(#paint0_linear_8116_13503)"/>
  <path d="M64.8908 25.612C64.9767 25.6476 65.0196 25.6654 65.0582 25.673C65.2169 25.7046 65.379 25.6375 65.4689 25.503C65.4907 25.4702 65.5085 25.4273 65.5441 25.3414L67.4575 20.722C67.4931 20.6362 67.5109 20.5932 67.5185 20.5546C67.5501 20.3959 67.483 20.2338 67.3485 20.144C67.3157 20.1221 67.2728 20.1043 67.1869 20.0687C67.1011 20.0332 67.0581 20.0154 67.0195 20.0077C66.8608 19.9761 66.6987 20.0433 66.6089 20.1778C66.587 20.2105 66.5692 20.2535 66.5336 20.3393L64.6202 24.9587C64.5846 25.0446 64.5669 25.0875 64.5592 25.1262C64.5276 25.2848 64.5947 25.4469 64.7293 25.5368C64.762 25.5587 64.805 25.5765 64.8908 25.612Z" fill="url(#paint1_linear_8116_13503)"/>
  <path d="M67.8373 27.913C67.7716 27.8473 67.7388 27.8145 67.7169 27.7817C67.627 27.6472 67.627 27.4718 67.7169 27.3373C67.7388 27.3045 67.7716 27.2716 67.8373 27.2059L71.3729 23.6704C71.4386 23.6047 71.4714 23.5718 71.5042 23.5499C71.6387 23.4601 71.8141 23.4601 71.9487 23.5499C71.9814 23.5718 72.0143 23.6047 72.08 23.6704C72.1457 23.7361 72.1786 23.769 72.2004 23.8017C72.2903 23.9362 72.2903 24.1117 72.2004 24.2462C72.1786 24.2789 72.1457 24.3118 72.08 24.3775L68.5445 27.913C68.4787 27.9787 68.4459 28.0116 68.4131 28.0335C68.2786 28.1234 68.1032 28.1234 67.9687 28.0335C67.9359 28.0116 67.9031 27.9788 67.8373 27.913Z" fill="url(#paint2_linear_8116_13503)"/>
  <path d="M67.9045 75.5825L85.7893 57.6977C85.9215 57.5656 85.9876 57.4995 86.0084 57.4218C86.022 57.371 86.022 57.3174 86.0084 57.2665C85.9876 57.1889 85.9215 57.1228 85.7893 56.9906C85.6572 56.8584 85.5911 56.7924 85.5134 56.7716C85.4626 56.7579 85.409 56.7579 85.3581 56.7716C85.2805 56.7924 85.2144 56.8584 85.0822 56.9906L67.1974 74.8754L67.1974 72.3399C67.1974 72.153 67.1974 72.0595 67.1572 71.9899C67.1309 71.9443 67.093 71.9064 67.0474 71.8801C66.9778 71.8399 66.8843 71.8399 66.6974 71.8399C66.5105 71.8399 66.417 71.8399 66.3474 71.8801C66.3018 71.9064 66.2639 71.9443 66.2376 71.9899C66.1974 72.0595 66.1974 72.153 66.1974 72.3399L66.1974 75.5825C66.1974 76.0539 66.1974 76.2896 66.3438 76.4361C66.4903 76.5825 66.726 76.5825 67.1974 76.5825L70.44 76.5825C70.627 76.5825 70.7204 76.5825 70.79 76.5423C70.8356 76.516 70.8735 76.4781 70.8999 76.4325C70.94 76.3629 70.94 76.2694 70.94 76.0825C70.94 75.8956 70.94 75.8021 70.8998 75.7325C70.8735 75.6869 70.8356 75.649 70.79 75.6227C70.7204 75.5825 70.627 75.5825 70.44 75.5825L67.9045 75.5825Z" fill="url(#paint3_linear_8116_13503)"/>
  <defs>
    <linearGradient id="paint0_linear_8116_13503" x1="66" y1="30" x2="72.5" y2="24" gradientUnits="userSpaceOnUse">
      <stop stop-color="white" stop-opacity="0"/>
      <stop offset="1" stop-color="white" stop-opacity="0.4"/>
    </linearGradient>
    <linearGradient id="paint1_linear_8116_13503" x1="66" y1="30" x2="72.5" y2="24" gradientUnits="userSpaceOnUse">
      <stop stop-color="white" stop-opacity="0"/>
      <stop offset="1" stop-color="white" stop-opacity="0.4"/>
    </linearGradient>
    <linearGradient id="paint2_linear_8116_13503" x1="66" y1="30" x2="72.5" y2="24" gradientUnits="userSpaceOnUse">
      <stop stop-color="white" stop-opacity="0"/>
      <stop offset="1" stop-color="white" stop-opacity="0.4"/>
    </linearGradient>
    <linearGradient id="paint3_linear_8116_13503" x1="86.4964" y1="56.2835" x2="66.3438" y2="76.4361" gradientUnits="userSpaceOnUse">
      <stop stop-color="white" stop-opacity="0"/>
      <stop offset="1" stop-color="white" stop-opacity="0.4"/>
    </linearGradient>
  </defs>
</svg>
