<svg width="96" height="96" viewBox="0 0 96 96" fill="none" xmlns="http://www.w3.org/2000/svg">
  <path d="M60 28C52.4575 28 48.6863 28 46.3431 30.3431C44 32.6863 44 36.4575 44 44V52C44 59.5425 44 63.3137 46.3431 65.6569C48.6863 68 52.4575 68 60 68H68C75.5425 68 79.3137 68 81.6569 65.6569C84 63.3137 84 59.5425 84 52V44C84 36.4575 84 32.6863 81.6569 30.3431C79.3137 28 75.5425 28 68 28H60Z" fill="#232328"/>
  <path d="M52 28C44.4575 28 40.6863 28 38.3431 30.3431C36 32.6863 36 36.4575 36 44V52C36 59.5425 36 63.3137 38.3431 65.6569C40.6863 68 44.4575 68 52 68H60C67.5425 68 71.3137 68 73.6569 65.6569C76 63.3137 76 59.5425 76 52V44C76 36.4575 76 32.6863 73.6569 30.3431C71.3137 28 67.5425 28 60 28H52Z" fill="#31313D"/>
  <path d="M44 28C36.4575 28 32.6863 28 30.3431 30.3431C28 32.6863 28 36.4575 28 44V52C28 59.5425 28 63.3137 30.3431 65.6569C32.6863 68 36.4575 68 44 68H52C59.5425 68 63.3137 68 65.6569 65.6569C68 63.3137 68 59.5425 68 52V44C68 36.4575 68 32.6863 65.6569 30.3431C63.3137 28 59.5425 28 52 28H44Z" fill="#494979"/>
  <path d="M50.2071 76.7293L75.5 76.7293C75.6869 76.7293 75.7804 76.7293 75.85 76.6891C75.8956 76.6628 75.9335 76.6249 75.9598 76.5793C76 76.5097 76 76.4162 76 76.2293C76 76.0424 76 75.9489 75.9598 75.8793C75.9335 75.8337 75.8956 75.7958 75.85 75.7695C75.7804 75.7293 75.6869 75.7293 75.5 75.7293L50.207 75.7293L52 73.9364C52.1321 73.8042 52.1982 73.7381 52.219 73.6605C52.2327 73.6096 52.2327 73.5561 52.219 73.5052C52.1982 73.4276 52.1321 73.3615 52 73.2293C51.8678 73.0971 51.8017 73.031 51.7241 73.0102C51.6732 72.9966 51.6196 72.9966 51.5688 73.0102C51.4911 73.031 51.425 73.0971 51.2929 73.2293L49 75.5222C48.6666 75.8555 48.5 76.0222 48.5 76.2293C48.5 76.4364 48.6666 76.6031 49 76.9364L51.2929 79.2293C51.425 79.3615 51.4911 79.4276 51.5688 79.4484C51.6196 79.462 51.6732 79.462 51.7241 79.4484C51.8017 79.4276 51.8678 79.3615 52 79.2293C52.1321 79.0971 52.1982 79.031 52.219 78.9534C52.2327 78.9025 52.2327 78.849 52.219 78.7981C52.1982 78.7204 52.1321 78.6544 52 78.5222L50.2071 76.7293Z" fill="url(#paint0_linear_8245_47066)"/>
  <defs>
    <linearGradient id="paint0_linear_8245_47066" x1="77" y1="76.2293" x2="48.5" y2="76.2293" gradientUnits="userSpaceOnUse">
      <stop stop-color="white" stop-opacity="0"/>
      <stop offset="1" stop-color="white" stop-opacity="0.4"/>
    </linearGradient>
  </defs>
</svg>
