<svg width="96" height="96" viewBox="0 0 96 96" fill="none" xmlns="http://www.w3.org/2000/svg">
  <path d="M27.647 49.3128C25.6948 42.0274 24.7188 38.3846 26.3756 35.5149C28.0325 32.6451 31.6752 31.6691 38.9607 29.7169L46.6881 27.6464C53.9735 25.6942 57.6163 24.7182 60.486 26.375C63.3558 28.0319 64.3319 31.6746 66.284 38.9601L68.3545 46.6875C70.3067 53.973 71.2828 57.6157 69.6259 60.4854C67.969 63.3552 64.3263 64.3313 57.0408 66.2834L49.3134 68.354C42.028 70.3061 38.3852 71.2822 35.5155 69.6253C32.6457 67.9685 31.6697 64.3257 29.7175 57.0403L27.647 49.3128Z" fill="#232328"/>
  <path d="M28.6797 54.536C24.9085 48.004 23.0228 44.738 23.8805 41.5372C24.7381 38.3364 28.0041 36.4508 34.5361 32.6796L41.4643 28.6796C47.9963 24.9083 51.2623 23.0227 54.4631 23.8804C57.6638 24.738 59.5495 28.004 63.3207 34.536L67.3207 41.4642C71.0919 47.9961 72.9776 51.2621 72.1199 54.4629C71.2623 57.6637 67.9963 59.5493 61.4643 63.3206L54.5361 67.3206C48.0041 71.0918 44.7381 72.9774 41.5373 72.1198C38.3365 71.2621 36.4509 67.9961 32.6797 61.4642L28.6797 54.536Z" fill="#31313D"/>
  <path d="M31.0305 59.3137C25.6972 53.9804 23.0305 51.3137 23.0305 48C23.0305 44.6863 25.6972 42.0196 31.0305 36.6863L36.6874 31.0294C42.0207 25.6961 44.6874 23.0294 48.0011 23.0294C51.3148 23.0294 53.9814 25.6961 59.3148 31.0294L64.9716 36.6863C70.305 42.0196 72.9716 44.6863 72.9716 48C72.9716 51.3137 70.305 53.9804 64.9716 59.3137L59.3148 64.9706C53.9814 70.3039 51.3148 72.9706 48.0011 72.9706C44.6874 72.9706 42.0207 70.3039 36.6874 64.9706L31.0305 59.3137Z" fill="#494979"/>
  <path d="M41.8214 80.9425L42.3718 82.9966C42.4202 83.1771 42.4444 83.2674 42.4236 83.3451C42.4099 83.3959 42.3832 83.4423 42.3459 83.4796C42.2891 83.5364 42.1988 83.5606 42.0183 83.609C41.8377 83.6573 41.7474 83.6815 41.6698 83.6607C41.6189 83.6471 41.5725 83.6203 41.5353 83.5831C41.4785 83.5262 41.4543 83.436 41.4059 83.2554L40.689 80.5799C40.6341 80.3751 40.5807 80.1761 40.5588 80.006C40.5341 79.8143 40.5381 79.5869 40.6665 79.3644C40.7949 79.142 40.9899 79.0248 41.1683 78.9503C41.3265 78.8843 41.5256 78.831 41.7304 78.7761L44.4059 78.0593C44.5864 78.0109 44.6767 77.9867 44.7544 78.0075C44.8052 78.0211 44.8516 78.0479 44.8888 78.0851C44.9457 78.142 44.9699 78.2323 45.0183 78.4128C45.0666 78.5934 45.0908 78.6836 45.07 78.7613C45.0564 78.8122 45.0296 78.8585 44.9924 78.8958C44.9355 78.9526 44.8453 78.9768 44.6647 79.0252L42.0155 79.735C41.9847 79.7433 41.9557 79.7511 41.9283 79.7585C45.4377 82.6786 50.5567 82.6783 54.0658 79.7576C54.0394 79.7505 54.0115 79.743 53.982 79.7351L51.3328 79.0252C51.1523 78.9769 51.062 78.9527 51.0051 78.8958C50.9679 78.8586 50.9411 78.8122 50.9275 78.7613C50.9067 78.6837 50.9309 78.5934 50.9793 78.4129C51.0276 78.2323 51.0518 78.142 51.1087 78.0852C51.1459 78.048 51.1923 78.0212 51.2432 78.0075C51.3208 77.9867 51.4111 78.0109 51.5916 78.0593L54.2671 78.7762C54.4719 78.831 54.671 78.8843 54.8292 78.9504C55.0076 79.0249 55.2026 79.1421 55.331 79.3645C55.4594 79.5869 55.4634 79.8144 55.4387 80.0061C55.4168 80.1762 55.3634 80.3752 55.3085 80.58L54.5916 83.2555C54.5433 83.436 54.5191 83.5263 54.4622 83.5831C54.425 83.6204 54.3786 83.6472 54.3277 83.6608C54.2501 83.6816 54.1598 83.6574 53.9793 83.609C53.7987 83.5606 53.7084 83.5364 53.6516 83.4796C53.6144 83.4424 53.5876 83.396 53.5739 83.3451C53.5531 83.2675 53.5773 83.1772 53.6257 82.9966L54.1772 80.9383C50.5074 83.6169 45.4927 83.6183 41.8214 80.9425Z" fill="url(#paint0_linear_8116_42493)"/>
  <defs>
    <linearGradient id="paint0_linear_8116_42493" x1="40.0049" y1="80.8341" x2="55.4506" y2="80.8341" gradientUnits="userSpaceOnUse">
      <stop stop-color="white" stop-opacity="0.2"/>
      <stop offset="1" stop-color="white" stop-opacity="0.4"/>
    </linearGradient>
  </defs>
</svg>
