<svg width="96" height="96" viewBox="0 0 96 96" fill="none" xmlns="http://www.w3.org/2000/svg">
  <path d="M45.6128 24.702C47.0392 25.7135 48.9608 25.7135 50.3872 24.702C57.4749 19.6761 67.0495 19.7763 74.0276 24.9494C79.0469 28.6704 82 34.5044 82 40.6994V41.4827C82 47.5704 79.3563 53.3662 74.7384 57.4027L53.5504 75.923C50.3823 78.6923 45.6177 78.6923 42.4496 75.923L21.2616 57.4027C16.6437 53.3662 14 47.5704 14 41.4827V40.6994C14 34.5044 16.9531 28.6704 21.9724 24.9494C28.9505 19.7763 38.5251 19.6761 45.6128 24.702Z" fill="#232328"/>
  <path d="M78.138 22.86C78.1736 22.9459 78.1913 22.9888 78.2132 23.0216C78.3031 23.1561 78.4652 23.2232 78.6238 23.1917C78.6625 23.184 78.7054 23.1662 78.7913 23.1306L83.4107 21.2172C83.4965 21.1817 83.5395 21.1639 83.5722 21.142C83.7067 21.0521 83.7739 20.89 83.7423 20.7314C83.7346 20.6927 83.7168 20.6498 83.6813 20.5639C83.6457 20.4781 83.6279 20.4352 83.606 20.4024C83.5162 20.2679 83.3541 20.2008 83.1954 20.2323C83.1568 20.24 83.1138 20.2578 83.028 20.2933L78.4086 22.2068C78.3227 22.2423 78.2798 22.2601 78.247 22.282C78.1125 22.3719 78.0454 22.5339 78.077 22.6926C78.0846 22.7313 78.1024 22.7742 78.138 22.86Z" fill="url(#paint0_linear_8116_42494)"/>
  <path d="M72.8908 17.612C72.9767 17.6476 73.0196 17.6654 73.0582 17.673C73.2169 17.7046 73.379 17.6375 73.4689 17.503C73.4907 17.4702 73.5085 17.4273 73.5441 17.3414L75.4575 12.722C75.4931 12.6362 75.5109 12.5932 75.5185 12.5546C75.5501 12.3959 75.483 12.2338 75.3485 12.144C75.3157 12.1221 75.2728 12.1043 75.1869 12.0687C75.1011 12.0332 75.0581 12.0154 75.0195 12.0077C74.8608 11.9761 74.6987 12.0433 74.6089 12.1778C74.587 12.2105 74.5692 12.2535 74.5336 12.3393L72.6202 16.9587C72.5846 17.0446 72.5669 17.0875 72.5592 17.1262C72.5276 17.2848 72.5947 17.4469 72.7293 17.5368C72.762 17.5587 72.805 17.5765 72.8908 17.612Z" fill="url(#paint1_linear_8116_42494)"/>
  <path d="M75.8373 19.913C75.7716 19.8473 75.7388 19.8145 75.7169 19.7817C75.627 19.6472 75.627 19.4718 75.7169 19.3373C75.7388 19.3045 75.7716 19.2716 75.8373 19.2059L79.3729 15.6704C79.4386 15.6047 79.4714 15.5718 79.5042 15.5499C79.6387 15.4601 79.8141 15.4601 79.9487 15.5499C79.9814 15.5718 80.0143 15.6047 80.08 15.6704C80.1457 15.7361 80.1786 15.769 80.2004 15.8017C80.2903 15.9362 80.2903 16.1117 80.2004 16.2462C80.1786 16.2789 80.1457 16.3118 80.08 16.3775L76.5445 19.913C76.4787 19.9787 76.4459 20.0116 76.4131 20.0335C76.2786 20.1234 76.1032 20.1234 75.9687 20.0335C75.9359 20.0116 75.9031 19.9788 75.8373 19.913Z" fill="url(#paint2_linear_8116_42494)"/>
  <path d="M23.862 65.14C23.8264 65.0541 23.8087 65.0112 23.7868 64.9784C23.6969 64.8439 23.5348 64.7768 23.3762 64.8083C23.3375 64.816 23.2946 64.8338 23.2087 64.8694L18.5893 66.7828C18.5035 66.8183 18.4605 66.8361 18.4278 66.858C18.2933 66.9479 18.2261 67.11 18.2577 67.2686C18.2654 67.3073 18.2832 67.3502 18.3187 67.4361C18.3543 67.5219 18.3721 67.5648 18.394 67.5976C18.4838 67.7321 18.6459 67.7992 18.8046 67.7677C18.8432 67.76 18.8862 67.7422 18.972 67.7067L23.5914 65.7932C23.6773 65.7577 23.7202 65.7399 23.753 65.718C23.8875 65.6281 23.9546 65.4661 23.923 65.3074C23.9154 65.2687 23.8976 65.2258 23.862 65.14Z" fill="url(#paint3_linear_8116_42494)"/>
  <path d="M29.1092 70.388C29.0233 70.3524 28.9804 70.3346 28.9418 70.327C28.7831 70.2954 28.621 70.3625 28.5311 70.497C28.5093 70.5298 28.4915 70.5727 28.4559 70.6586L26.5425 75.278C26.5069 75.3638 26.4891 75.4068 26.4815 75.4454C26.4499 75.6041 26.517 75.7662 26.6515 75.856C26.6843 75.8779 26.7272 75.8957 26.8131 75.9313C26.8989 75.9668 26.9419 75.9846 26.9805 75.9923C27.1392 76.0239 27.3013 75.9567 27.3911 75.8222C27.413 75.7895 27.4308 75.7465 27.4664 75.6607L29.3798 71.0413C29.4154 70.9554 29.4331 70.9125 29.4408 70.8738C29.4724 70.7152 29.4053 70.5531 29.2707 70.4632C29.238 70.4413 29.195 70.4235 29.1092 70.388Z" fill="url(#paint4_linear_8116_42494)"/>
  <path d="M26.1627 68.087C26.2284 68.1527 26.2612 68.1855 26.2831 68.2183C26.373 68.3528 26.373 68.5282 26.2831 68.6627C26.2612 68.6955 26.2284 68.7284 26.1627 68.7941L22.6271 72.3296C22.5614 72.3953 22.5286 72.4282 22.4958 72.4501C22.3613 72.5399 22.1859 72.5399 22.0513 72.4501C22.0186 72.4282 21.9857 72.3953 21.92 72.3296C21.8543 72.2639 21.8214 72.231 21.7996 72.1983C21.7097 72.0638 21.7097 71.8883 21.7996 71.7538C21.8214 71.7211 21.8543 71.6882 21.92 71.6225L25.4555 68.087C25.5213 68.0213 25.5541 67.9884 25.5869 67.9665C25.7214 67.8766 25.8968 67.8766 26.0313 67.9665C26.0641 67.9884 26.0969 68.0212 26.1627 68.087Z" fill="url(#paint5_linear_8116_42494)"/>
  <path d="M46.0341 29.0526C47.2088 29.8866 48.7912 29.8866 49.9659 29.0526C55.8029 24.9084 63.6879 24.991 69.4345 29.2565C73.568 32.3247 76 37.1352 76 42.2433V42.8893C76 47.9089 73.8229 52.6879 70.0198 56.0163L52.571 71.2874C49.9619 73.5709 46.0381 73.5709 43.429 71.2874L25.9802 56.0163C22.1771 52.6879 20 47.9089 20 42.8893V42.2433C20 37.1352 22.432 32.3247 26.5655 29.2565C32.3121 24.991 40.1971 24.9084 46.0341 29.0526Z" fill="#31313D"/>
  <path d="M46.4553 33.4275C47.3783 34.0908 48.6217 34.0908 49.5447 33.4275C54.1308 30.1319 60.3262 30.1976 64.8414 33.5897C68.0892 36.0297 70 39.8552 70 43.9173V44.431C70 48.4228 68.2894 52.2233 65.3013 54.8702L51.5915 67.0144C49.5415 68.8303 46.4585 68.8303 44.4085 67.0144L30.6987 54.8702C27.7106 52.2233 26 48.4228 26 44.431V43.9173C26 39.8552 27.9108 36.0297 31.1586 33.5897C35.6738 30.1976 41.8692 30.1319 46.4553 33.4275Z" fill="#494979"/>
  <defs>
    <linearGradient id="paint0_linear_8116_42494" x1="74" y1="22" x2="80.5" y2="16" gradientUnits="userSpaceOnUse">
      <stop stop-color="white" stop-opacity="0"/>
      <stop offset="1" stop-color="white" stop-opacity="0.4"/>
    </linearGradient>
    <linearGradient id="paint1_linear_8116_42494" x1="74" y1="22" x2="80.5" y2="16" gradientUnits="userSpaceOnUse">
      <stop stop-color="white" stop-opacity="0"/>
      <stop offset="1" stop-color="white" stop-opacity="0.4"/>
    </linearGradient>
    <linearGradient id="paint2_linear_8116_42494" x1="74" y1="22" x2="80.5" y2="16" gradientUnits="userSpaceOnUse">
      <stop stop-color="white" stop-opacity="0"/>
      <stop offset="1" stop-color="white" stop-opacity="0.4"/>
    </linearGradient>
    <linearGradient id="paint3_linear_8116_42494" x1="28" y1="66" x2="21.5" y2="72" gradientUnits="userSpaceOnUse">
      <stop stop-color="white" stop-opacity="0"/>
      <stop offset="1" stop-color="white" stop-opacity="0.4"/>
    </linearGradient>
    <linearGradient id="paint4_linear_8116_42494" x1="28" y1="66" x2="21.5" y2="72" gradientUnits="userSpaceOnUse">
      <stop stop-color="white" stop-opacity="0"/>
      <stop offset="1" stop-color="white" stop-opacity="0.4"/>
    </linearGradient>
    <linearGradient id="paint5_linear_8116_42494" x1="28" y1="66" x2="21.5" y2="72" gradientUnits="userSpaceOnUse">
      <stop stop-color="white" stop-opacity="0"/>
      <stop offset="1" stop-color="white" stop-opacity="0.4"/>
    </linearGradient>
  </defs>
</svg>
