<svg width="96" height="96" viewBox="0 0 96 96" fill="none" xmlns="http://www.w3.org/2000/svg">
  <path d="M28 44C28 36.4575 28 32.6863 30.3431 30.3431C32.6863 28 36.4575 28 44 28H52C59.5425 28 63.3137 28 65.6569 30.3431C68 32.6863 68 36.4575 68 44V52C68 59.5425 68 63.3137 65.6569 65.6569C63.3137 68 59.5425 68 52 68H44C36.4575 68 32.6863 68 30.3431 65.6569C28 63.3137 28 59.5425 28 52V44Z" fill="#232328"/>
  <path fill-rule="evenodd" clip-rule="evenodd" d="M72 37.6C72 37.7886 72 37.8828 71.9414 37.9414C71.8828 38 71.7886 38 71.6 38H24.4C24.2114 38 24.1172 38 24.0586 37.9414C24 37.8828 24 37.7886 24 37.6V37.4C24 37.2114 24 37.1172 24.0586 37.0586C24.1172 37 24.2114 37 24.4 37H71.6C71.7886 37 71.8828 37 71.9414 37.0586C72 37.1172 72 37.2114 72 37.4V37.6Z" fill="#31313D"/>
  <path d="M28 38H68V52C68 59.5425 68 63.3137 65.6569 65.6569C63.3137 68 59.5425 68 52 68H44C36.4575 68 32.6863 68 30.3431 65.6569C28 63.3137 28 59.5425 28 52V38Z" fill="#494979"/>
  <path d="M48.4354 28.022L48.4354 33.3149C48.4354 33.5018 48.4354 33.5953 48.3952 33.6649C48.3688 33.7105 48.331 33.7484 48.2854 33.7747C48.2158 33.8149 48.1223 33.8149 47.9354 33.8149C47.7484 33.8149 47.655 33.8149 47.5854 33.7747C47.5398 33.7484 47.5019 33.7105 47.4756 33.6649C47.4354 33.5953 47.4354 33.5018 47.4354 33.3149L47.4354 28.022L45.6425 29.8149C45.5103 29.947 45.4442 30.0131 45.3665 30.0339C45.3157 30.0476 45.2621 30.0476 45.2113 30.0339C45.1336 30.0131 45.0675 29.947 44.9353 29.8149C44.8032 29.6827 44.7371 29.6166 44.7163 29.539C44.7026 29.4881 44.7026 29.4345 44.7163 29.3837C44.7371 29.306 44.8032 29.2399 44.9353 29.1078L47.2282 26.8149C47.5616 26.4815 47.7282 26.3149 47.9353 26.3149C48.1425 26.3149 48.3091 26.4815 48.6424 26.8149L50.9353 29.1078C51.0675 29.2399 51.1336 29.306 51.1544 29.3837C51.168 29.4345 51.168 29.4881 51.1544 29.539C51.1336 29.6166 51.0675 29.6827 50.9353 29.8149C50.8032 29.947 50.7371 30.0131 50.6594 30.0339C50.6086 30.0476 50.555 30.0476 50.5041 30.0339C50.4265 30.0131 50.3604 29.947 50.2282 29.8149L48.4354 28.022Z" fill="url(#paint0_linear_8108_5690)"/>
  <defs>
    <linearGradient id="paint0_linear_8108_5690" x1="47.9353" y1="34.0876" x2="47.9353" y2="26.3149" gradientUnits="userSpaceOnUse">
      <stop stop-color="white" stop-opacity="0"/>
      <stop offset="1" stop-color="white" stop-opacity="0.4"/>
    </linearGradient>
  </defs>
</svg>
