<svg width="96" height="96" viewBox="0 0 96 96" fill="none" xmlns="http://www.w3.org/2000/svg">
  <path d="M28 44C28 36.4575 28 32.6863 30.3431 30.3431C32.6863 28 36.4575 28 44 28H52C59.5425 28 63.3137 28 65.6569 30.3431C68 32.6863 68 36.4575 68 44V52C68 59.5425 68 63.3137 65.6569 65.6569C63.3137 68 59.5425 68 52 68H44C36.4575 68 32.6863 68 30.3431 65.6569C28 63.3137 28 59.5425 28 52V44Z" fill="#494979"/>
  <path fill-rule="evenodd" clip-rule="evenodd" d="M72 37.6C72 37.7886 72 37.8828 71.9414 37.9414C71.8828 38 71.7886 38 71.6 38H24.4C24.2114 38 24.1172 38 24.0586 37.9414C24 37.8828 24 37.7886 24 37.6V37.4C24 37.2114 24 37.1172 24.0586 37.0586C24.1172 37 24.2114 37 24.4 37H71.6C71.7886 37 71.8828 37 71.9414 37.0586C72 37.1172 72 37.2114 72 37.4V37.6Z" fill="#31313D"/>
  <path opacity="0.8" d="M28 38H68V52C68 59.5425 68 63.3137 65.6569 65.6569C63.3137 68 59.5425 68 52 68H44C36.4575 68 32.6863 68 30.3431 65.6569C28 63.3137 28 59.5425 28 52V38Z" fill="#232328"/>
  <path d="M48.4344 28.022L48.4344 33.3149C48.4344 33.5018 48.4344 33.5953 48.3942 33.6649C48.3679 33.7105 48.33 33.7484 48.2844 33.7747C48.2148 33.8149 48.1213 33.8149 47.9344 33.8149C47.7475 33.8149 47.654 33.8149 47.5844 33.7747C47.5388 33.7484 47.5009 33.7105 47.4746 33.6649C47.4344 33.5953 47.4344 33.5018 47.4344 33.3149L47.4344 28.022L45.6415 29.8149C45.5093 29.947 45.4432 30.0131 45.3656 30.0339C45.3147 30.0476 45.2611 30.0476 45.2103 30.0339C45.1326 30.0131 45.0665 29.947 44.9344 29.8149C44.8022 29.6827 44.7361 29.6166 44.7153 29.539C44.7017 29.4881 44.7017 29.4345 44.7153 29.3837C44.7361 29.306 44.8022 29.2399 44.9344 29.1078L47.2273 26.8149C47.5606 26.4815 47.7273 26.3149 47.9344 26.3149C48.1415 26.3149 48.3081 26.4815 48.6415 26.8149L50.9344 29.1078C51.0665 29.2399 51.1326 29.306 51.1534 29.3837C51.1671 29.4345 51.1671 29.4881 51.1534 29.539C51.1326 29.6166 51.0665 29.6827 50.9344 29.8149C50.8022 29.947 50.7361 30.0131 50.6585 30.0339C50.6076 30.0476 50.554 30.0476 50.5032 30.0339C50.4255 30.0131 50.3594 29.947 50.2273 29.8149L48.4344 28.022Z" fill="url(#paint0_linear_8116_13688)"/>
  <defs>
    <linearGradient id="paint0_linear_8116_13688" x1="47.9344" y1="34.0876" x2="47.9344" y2="26.3149" gradientUnits="userSpaceOnUse">
      <stop stop-color="white" stop-opacity="0"/>
      <stop offset="1" stop-color="white" stop-opacity="0.4"/>
    </linearGradient>
  </defs>
</svg>
