<svg width="96" height="96" viewBox="0 0 96 96" fill="none" xmlns="http://www.w3.org/2000/svg">
  <path d="M28 52C28 59.5425 28 63.3137 30.3431 65.6569C32.6863 68 36.4575 68 44 68H52C59.5425 68 63.3137 68 65.6569 65.6569C68 63.3137 68 59.5425 68 52V44C68 36.4575 68 32.6863 65.6569 30.3431C63.3137 28 59.5425 28 52 28H44C36.4575 28 32.6863 28 30.3431 30.3431C28 32.6863 28 36.4575 28 44V52Z" fill="#232328"/>
  <path d="M28 58H68V44C68 36.4575 68 32.6863 65.6569 30.3431C63.3137 28 59.5425 28 52 28H44C36.4575 28 32.6863 28 30.3431 30.3431C28 32.6863 28 36.4575 28 44V58Z" fill="#494979"/>
  <path fill-rule="evenodd" clip-rule="evenodd" d="M72 58.6C72 58.7886 72 58.8828 71.9414 58.9414C71.8828 59 71.7886 59 71.6 59H24.4C24.2114 59 24.1172 59 24.0586 58.9414C24 58.8828 24 58.7886 24 58.6V58.4C24 58.2114 24 58.1172 24.0586 58.0586C24.1172 58 24.2114 58 24.4 58H71.6C71.7886 58 71.8828 58 71.9414 58.0586C72 58.1172 72 58.2114 72 58.4V58.6Z" fill="#31313D"/>
  <path d="M48.4354 67.978L48.4354 62.6851C48.4354 62.4982 48.4354 62.4047 48.3952 62.3351C48.3688 62.2895 48.331 62.2516 48.2854 62.2253C48.2158 62.1851 48.1223 62.1851 47.9354 62.1851C47.7484 62.1851 47.655 62.1851 47.5854 62.2253C47.5398 62.2516 47.5019 62.2895 47.4756 62.3351C47.4354 62.4047 47.4354 62.4982 47.4354 62.6851L47.4354 67.978L45.6425 66.1851C45.5103 66.053 45.4442 65.9869 45.3665 65.9661C45.3157 65.9524 45.2621 65.9524 45.2113 65.9661C45.1336 65.9869 45.0675 66.053 44.9353 66.1851C44.8032 66.3173 44.7371 66.3834 44.7163 66.461C44.7026 66.5119 44.7026 66.5655 44.7163 66.6163C44.7371 66.694 44.8032 66.7601 44.9353 66.8922L47.2282 69.1851C47.5616 69.5185 47.7282 69.6851 47.9353 69.6851C48.1425 69.6851 48.3091 69.5185 48.6424 69.1851L50.9353 66.8922C51.0675 66.7601 51.1336 66.694 51.1544 66.6163C51.168 66.5655 51.168 66.5119 51.1544 66.461C51.1336 66.3834 51.0675 66.3173 50.9353 66.1851C50.8032 66.053 50.7371 65.9869 50.6594 65.9661C50.6086 65.9524 50.555 65.9524 50.5041 65.9661C50.4265 65.9869 50.3604 66.053 50.2282 66.1851L48.4354 67.978Z" fill="url(#paint0_linear_8108_5985)"/>
  <defs>
    <linearGradient id="paint0_linear_8108_5985" x1="47.9353" y1="61.9124" x2="47.9353" y2="69.6851" gradientUnits="userSpaceOnUse">
      <stop stop-color="white" stop-opacity="0"/>
      <stop offset="1" stop-color="white" stop-opacity="0.4"/>
    </linearGradient>
  </defs>
</svg>
