<svg width="96" height="96" viewBox="0 0 96 96" fill="none" xmlns="http://www.w3.org/2000/svg">
  <path d="M52 28C59.5425 28 63.3137 28 65.6569 30.3431C68 32.6863 68 36.4575 68 44L68 52C68 59.5425 68 63.3137 65.6569 65.6569C63.3137 68 59.5425 68 52 68L44 68C36.4575 68 32.6863 68 30.3431 65.6569C28 63.3137 28 59.5425 28 52L28 44C28 36.4575 28 32.6863 30.3431 30.3431C32.6863 28 36.4575 28 44 28L52 28Z" fill="#494979"/>
  <path opacity="0.8" d="M58 28L58 68L44 68C36.4575 68 32.6863 68 30.3431 65.6569C28 63.3137 28 59.5425 28 52L28 44C28 36.4575 28 32.6863 30.3431 30.3431C32.6863 28 36.4575 28 44 28L58 28Z" fill="#232328"/>
  <path fill-rule="evenodd" clip-rule="evenodd" d="M58.4 72C58.2114 72 58.1172 72 58.0586 71.9414C58 71.8828 58 71.7886 58 71.6L58 24.4C58 24.2114 58 24.1172 58.0586 24.0586C58.1172 24 58.2114 24 58.4 24L58.6 24C58.7886 24 58.8828 24 58.9414 24.0586C59 24.1172 59 24.2114 59 24.4L59 71.6C59 71.7886 59 71.8828 58.9414 71.9414C58.8828 72 58.7886 72 58.6 72L58.4 72Z" fill="#31313D"/>
  <path d="M67.9785 48.4351L62.6855 48.4351C62.4986 48.4351 62.4052 48.4351 62.3355 48.3949C62.2899 48.3686 62.2521 48.3307 62.2257 48.2851C62.1855 48.2155 62.1855 48.122 62.1855 47.9351C62.1855 47.7482 62.1855 47.6547 62.2257 47.5851C62.2521 47.5395 62.2899 47.5016 62.3355 47.4753C62.4052 47.4351 62.4986 47.4351 62.6855 47.4351L67.9785 47.4351L66.1856 45.6422C66.0534 45.51 65.9873 45.4439 65.9665 45.3663C65.9529 45.3154 65.9529 45.2619 65.9665 45.211C65.9873 45.1334 66.0534 45.0673 66.1856 44.9351C66.3178 44.8029 66.3838 44.7368 66.4615 44.716C66.5124 44.7024 66.5659 44.7024 66.6168 44.716C66.6944 44.7368 66.7605 44.8029 66.8927 44.9351L69.1856 47.228C69.5189 47.5613 69.6856 47.728 69.6856 47.9351C69.6856 48.1422 69.5189 48.3089 69.1856 48.6422L66.8927 50.9351C66.7605 51.0673 66.6944 51.1334 66.6168 51.1542C66.5659 51.1678 66.5124 51.1678 66.4615 51.1542C66.3838 51.1334 66.3178 51.0673 66.1856 50.9351C66.0534 50.8029 65.9873 50.7368 65.9665 50.6592C65.9529 50.6083 65.9529 50.5548 65.9665 50.5039C65.9873 50.4263 66.0534 50.3602 66.1856 50.228L67.9785 48.4351Z" fill="url(#paint0_linear_8116_13689)"/>
  <defs>
    <linearGradient id="paint0_linear_8116_13689" x1="61.9128" y1="47.9351" x2="69.6856" y2="47.9351" gradientUnits="userSpaceOnUse">
      <stop stop-color="white" stop-opacity="0"/>
      <stop offset="1" stop-color="white" stop-opacity="0.4"/>
    </linearGradient>
  </defs>
</svg>
