<svg width="96" height="96" viewBox="0 0 96 96" fill="none" xmlns="http://www.w3.org/2000/svg">
  <path d="M28 52C28 59.5425 28 63.3137 30.3431 65.6569C32.6863 68 36.4575 68 44 68H52C59.5425 68 63.3137 68 65.6569 65.6569C68 63.3137 68 59.5425 68 52V44C68 36.4575 68 32.6863 65.6569 30.3431C63.3137 28 59.5425 28 52 28H44C36.4575 28 32.6863 28 30.3431 30.3431C28 32.6863 28 36.4575 28 44V52Z" fill="#494979"/>
  <path opacity="0.8" d="M28 58H68V44C68 36.4575 68 32.6863 65.6569 30.3431C63.3137 28 59.5425 28 52 28H44C36.4575 28 32.6863 28 30.3431 30.3431C28 32.6863 28 36.4575 28 44V58Z" fill="#232328"/>
  <path fill-rule="evenodd" clip-rule="evenodd" d="M72 58.6C72 58.7886 72 58.8828 71.9414 58.9414C71.8828 59 71.7886 59 71.6 59H24.4C24.2114 59 24.1172 59 24.0586 58.9414C24 58.8828 24 58.7886 24 58.6V58.4C24 58.2114 24 58.1172 24.0586 58.0586C24.1172 58 24.2114 58 24.4 58H71.6C71.7886 58 71.8828 58 71.9414 58.0586C72 58.1172 72 58.2114 72 58.4V58.6Z" fill="#31313D"/>
  <path d="M48.4344 67.978L48.4344 62.6851C48.4344 62.4982 48.4344 62.4047 48.3942 62.3351C48.3679 62.2895 48.33 62.2516 48.2844 62.2253C48.2148 62.1851 48.1213 62.1851 47.9344 62.1851C47.7475 62.1851 47.654 62.1851 47.5844 62.2253C47.5388 62.2516 47.5009 62.2895 47.4746 62.3351C47.4344 62.4047 47.4344 62.4982 47.4344 62.6851L47.4344 67.978L45.6415 66.1851C45.5093 66.053 45.4432 65.9869 45.3656 65.9661C45.3147 65.9524 45.2611 65.9524 45.2103 65.9661C45.1326 65.9869 45.0665 66.053 44.9344 66.1851C44.8022 66.3173 44.7361 66.3834 44.7153 66.461C44.7017 66.5119 44.7017 66.5655 44.7153 66.6163C44.7361 66.694 44.8022 66.7601 44.9344 66.8922L47.2273 69.1851C47.5606 69.5185 47.7273 69.6851 47.9344 69.6851C48.1415 69.6851 48.3081 69.5185 48.6415 69.1851L50.9344 66.8922C51.0665 66.7601 51.1326 66.694 51.1534 66.6163C51.1671 66.5655 51.1671 66.5119 51.1534 66.461C51.1326 66.3834 51.0665 66.3173 50.9344 66.1851C50.8022 66.053 50.7361 65.9869 50.6585 65.9661C50.6076 65.9524 50.554 65.9524 50.5032 65.9661C50.4255 65.9869 50.3594 66.053 50.2273 66.1851L48.4344 67.978Z" fill="url(#paint0_linear_8116_13687)"/>
  <defs>
    <linearGradient id="paint0_linear_8116_13687" x1="47.9344" y1="61.9124" x2="47.9344" y2="69.6851" gradientUnits="userSpaceOnUse">
      <stop stop-color="white" stop-opacity="0"/>
      <stop offset="1" stop-color="white" stop-opacity="0.4"/>
    </linearGradient>
  </defs>
</svg>
