<svg width="96" height="96" viewBox="0 0 96 96" fill="none" xmlns="http://www.w3.org/2000/svg">
  <path d="M44 28C36.4575 28 32.6863 28 30.3431 30.3431C28 32.6863 28 36.4575 28 44L28 52C28 59.5425 28 63.3137 30.3431 65.6569C32.6863 68 36.4575 68 44 68L52 68C59.5425 68 63.3137 68 65.6569 65.6569C68 63.3137 68 59.5425 68 52L68 44C68 36.4575 68 32.6863 65.6569 30.3431C63.3137 28 59.5425 28 52 28L44 28Z" fill="#232328"/>
  <path d="M38 28L38 68L52 68C59.5425 68 63.3137 68 65.6569 65.6569C68 63.3137 68 59.5425 68 52L68 44C68 36.4575 68 32.6863 65.6569 30.3431C63.3137 28 59.5425 28 52 28L38 28Z" fill="#494979"/>
  <path fill-rule="evenodd" clip-rule="evenodd" d="M37.4 72C37.2114 72 37.1172 72 37.0586 71.9414C37 71.8828 37 71.7886 37 71.6L37 24.4C37 24.2114 37 24.1172 37.0586 24.0586C37.1172 24 37.2114 24 37.4 24L37.6 24C37.7886 24 37.8828 24 37.9414 24.0586C38 24.1172 38 24.2114 38 24.4L38 71.6C38 71.7886 38 71.8828 37.9414 71.9414C37.8828 72 37.7886 72 37.6 72L37.4 72Z" fill="#31313D"/>
  <path d="M28.0215 48.4351L33.3145 48.4351C33.5014 48.4351 33.5948 48.4351 33.6645 48.3949C33.7101 48.3686 33.7479 48.3307 33.7743 48.2851C33.8145 48.2155 33.8145 48.122 33.8145 47.9351C33.8145 47.7482 33.8145 47.6547 33.7743 47.5851C33.7479 47.5395 33.7101 47.5016 33.6645 47.4753C33.5948 47.4351 33.5014 47.4351 33.3145 47.4351L28.0215 47.4351L29.8144 45.6422C29.9466 45.51 30.0127 45.4439 30.0335 45.3663C30.0471 45.3154 30.0471 45.2619 30.0335 45.211C30.0127 45.1334 29.9466 45.0673 29.8144 44.9351C29.6822 44.8029 29.6162 44.7368 29.5385 44.716C29.4876 44.7024 29.4341 44.7024 29.3832 44.716C29.3056 44.7368 29.2395 44.8029 29.1073 44.9351L26.8144 47.228C26.4811 47.5613 26.3144 47.728 26.3144 47.9351C26.3144 48.1422 26.4811 48.3089 26.8144 48.6422L29.1073 50.9351C29.2395 51.0673 29.3056 51.1334 29.3832 51.1542C29.4341 51.1678 29.4876 51.1678 29.5385 51.1542C29.6162 51.1334 29.6822 51.0673 29.8144 50.9351C29.9466 50.8029 30.0127 50.7368 30.0335 50.6592C30.0471 50.6083 30.0471 50.5548 30.0335 50.5039C30.0127 50.4263 29.9466 50.3602 29.8144 50.228L28.0215 48.4351Z" fill="url(#paint0_linear_8108_5949)"/>
  <defs>
    <linearGradient id="paint0_linear_8108_5949" x1="34.0872" y1="47.9351" x2="26.3144" y2="47.9351" gradientUnits="userSpaceOnUse">
      <stop stop-color="white" stop-opacity="0"/>
      <stop offset="1" stop-color="white" stop-opacity="0.4"/>
    </linearGradient>
  </defs>
</svg>
