<svg width="96" height="96" viewBox="0 0 96 96" fill="none" xmlns="http://www.w3.org/2000/svg">
  <rect x="24" y="24" width="48" height="48" rx="8" fill="#232328"/>
  <rect x="28" y="28" width="40" height="40" rx="6" fill="#494979"/>
  <path d="M21.7332 74.8442L17.9906 78.5868C17.8584 78.719 17.7923 78.7851 17.7147 78.8059C17.6638 78.8195 17.6102 78.8195 17.5594 78.8059C17.4817 78.7851 17.4156 78.719 17.2835 78.5868C17.1513 78.4546 17.0852 78.3886 17.0644 78.3109C17.0508 78.26 17.0508 78.2065 17.0644 78.1556C17.0852 78.078 17.1513 78.0119 17.2835 77.8797L21.0262 74.137L18.4906 74.137C18.3037 74.137 18.2102 74.137 18.1406 74.0968C18.095 74.0705 18.0571 74.0326 18.0308 73.987C17.9906 73.9174 17.9906 73.8239 17.9906 73.637C17.9906 73.4501 17.9906 73.3566 18.0308 73.287C18.0571 73.2414 18.095 73.2035 18.1406 73.1772C18.2102 73.137 18.3037 73.137 18.4906 73.137L21.7332 73.137C22.2046 73.137 22.4403 73.137 22.5868 73.2835C22.7332 73.4299 22.7332 73.6656 22.7332 74.137L22.7332 77.3797C22.7332 77.5666 22.7332 77.66 22.693 77.7297C22.6667 77.7753 22.6288 77.8131 22.5832 77.8395C22.5136 77.8797 22.4201 77.8797 22.2332 77.8797C22.0463 77.8797 21.9528 77.8797 21.8832 77.8395C21.8376 77.8131 21.7997 77.7753 21.7734 77.7297C21.7332 77.66 21.7332 77.5666 21.7332 77.3797L21.7332 74.8442Z" fill="url(#paint0_linear_8108_6179)"/>
  <path d="M74.2668 21.1558L78.0094 17.4132C78.1416 17.281 78.2077 17.2149 78.2853 17.1941C78.3362 17.1805 78.3898 17.1805 78.4406 17.1941C78.5183 17.2149 78.5844 17.281 78.7165 17.4132C78.8487 17.5454 78.9148 17.6114 78.9356 17.6891C78.9492 17.74 78.9492 17.7935 78.9356 17.8444C78.9148 17.922 78.8487 17.9881 78.7165 18.1203L74.9738 21.863L77.5094 21.863C77.6963 21.863 77.7898 21.863 77.8594 21.9032C77.905 21.9295 77.9429 21.9674 77.9692 22.013C78.0094 22.0826 78.0094 22.1761 78.0094 22.363C78.0094 22.5499 78.0094 22.6434 77.9692 22.713C77.9429 22.7586 77.905 22.7965 77.8594 22.8228C77.7898 22.863 77.6963 22.863 77.5094 22.863L74.2668 22.863C73.7954 22.863 73.5597 22.863 73.4132 22.7165C73.2668 22.5701 73.2668 22.3344 73.2668 21.863L73.2668 18.6203C73.2668 18.4334 73.2668 18.34 73.307 18.2703C73.3333 18.2247 73.3712 18.1869 73.4168 18.1605C73.4864 18.1203 73.5799 18.1203 73.7668 18.1203C73.9537 18.1203 74.0472 18.1203 74.1168 18.1605C74.1624 18.1869 74.2003 18.2247 74.2266 18.2703C74.2668 18.34 74.2668 18.4334 74.2668 18.6203L74.2668 21.1558Z" fill="url(#paint1_linear_8108_6179)"/>
  <defs>
    <linearGradient id="paint0_linear_8108_6179" x1="17.0906" y1="78.7796" x2="22.5868" y2="73.2835" gradientUnits="userSpaceOnUse">
      <stop stop-color="white" stop-opacity="0"/>
      <stop offset="1" stop-color="white" stop-opacity="0.4"/>
    </linearGradient>
    <linearGradient id="paint1_linear_8108_6179" x1="78.9094" y1="17.2204" x2="73.4132" y2="22.7165" gradientUnits="userSpaceOnUse">
      <stop stop-color="white" stop-opacity="0"/>
      <stop offset="1" stop-color="white" stop-opacity="0.4"/>
    </linearGradient>
  </defs>
</svg>
