<svg width="96" height="96" viewBox="0 0 96 96" fill="none" xmlns="http://www.w3.org/2000/svg">
  <rect x="24" y="24" width="48" height="48" rx="8" fill="#232328"/>
  <rect x="28" y="28" width="40" height="40" rx="6" fill="#494979"/>
  <path d="M18.2668 77.1558L22.0094 73.4132C22.1416 73.281 22.2077 73.2149 22.2853 73.1941C22.3362 73.1805 22.3898 73.1805 22.4406 73.1941C22.5183 73.2149 22.5844 73.281 22.7165 73.4132C22.8487 73.5454 22.9148 73.6114 22.9356 73.6891C22.9492 73.74 22.9492 73.7935 22.9356 73.8444C22.9148 73.922 22.8487 73.9881 22.7165 74.1203L18.9738 77.863L21.5094 77.863C21.6963 77.863 21.7898 77.863 21.8594 77.9032C21.905 77.9295 21.9429 77.9674 21.9692 78.013C22.0094 78.0826 22.0094 78.1761 22.0094 78.363C22.0094 78.5499 22.0094 78.6434 21.9692 78.713C21.9429 78.7586 21.905 78.7965 21.8594 78.8228C21.7898 78.863 21.6963 78.863 21.5094 78.863L18.2668 78.863C17.7954 78.863 17.5597 78.863 17.4132 78.7165C17.2668 78.5701 17.2668 78.3344 17.2668 77.863L17.2668 74.6203C17.2668 74.4334 17.2668 74.34 17.307 74.2703C17.3333 74.2247 17.3712 74.1869 17.4168 74.1605C17.4864 74.1203 17.5799 74.1203 17.7668 74.1203C17.9537 74.1203 18.0472 74.1203 18.1168 74.1605C18.1624 74.1869 18.2003 74.2247 18.2266 74.2703C18.2668 74.34 18.2668 74.4334 18.2668 74.6203L18.2668 77.1558Z" fill="url(#paint0_linear_8108_6168)"/>
  <path d="M77.7332 18.8442L73.9906 22.5868C73.8584 22.719 73.7923 22.7851 73.7147 22.8059C73.6638 22.8195 73.6102 22.8195 73.5594 22.8059C73.4817 22.7851 73.4156 22.719 73.2835 22.5868C73.1513 22.4546 73.0852 22.3886 73.0644 22.3109C73.0508 22.26 73.0508 22.2065 73.0644 22.1556C73.0852 22.078 73.1513 22.0119 73.2835 21.8797L77.0262 18.137L74.4906 18.137C74.3037 18.137 74.2102 18.137 74.1406 18.0968C74.095 18.0705 74.0571 18.0326 74.0308 17.987C73.9906 17.9174 73.9906 17.8239 73.9906 17.637C73.9906 17.4501 73.9906 17.3566 74.0308 17.287C74.0571 17.2414 74.095 17.2035 74.1406 17.1772C74.2102 17.137 74.3037 17.137 74.4906 17.137L77.7332 17.137C78.2046 17.137 78.4403 17.137 78.5868 17.2835C78.7332 17.4299 78.7332 17.6656 78.7332 18.137L78.7332 21.3797C78.7332 21.5666 78.7332 21.66 78.693 21.7297C78.6667 21.7753 78.6288 21.8131 78.5832 21.8395C78.5136 21.8797 78.4201 21.8797 78.2332 21.8797C78.0463 21.8797 77.9528 21.8797 77.8832 21.8395C77.8376 21.8131 77.7997 21.7753 77.7734 21.7297C77.7332 21.66 77.7332 21.5666 77.7332 21.3797L77.7332 18.8442Z" fill="url(#paint1_linear_8108_6168)"/>
  <defs>
    <linearGradient id="paint0_linear_8108_6168" x1="22.9094" y1="73.2204" x2="17.4132" y2="78.7165" gradientUnits="userSpaceOnUse">
      <stop stop-color="white" stop-opacity="0"/>
      <stop offset="1" stop-color="white" stop-opacity="0.4"/>
    </linearGradient>
    <linearGradient id="paint1_linear_8108_6168" x1="73.0906" y1="22.7796" x2="78.5868" y2="17.2835" gradientUnits="userSpaceOnUse">
      <stop stop-color="white" stop-opacity="0"/>
      <stop offset="1" stop-color="white" stop-opacity="0.4"/>
    </linearGradient>
  </defs>
</svg>
